<svg viewBox="0 0 528 600">
  <g role="img" aria-labelledby="map-title">
		<title id="map-title">Map of Bristol, City of E06000023</title>
  <path
  d="M41.16149381494324,206.4721575770527L36.07408620314254,204.59875407491927L31.325047969903608,201.74710764663178ZM31.325047969903608,201.74710764663178L29.231013646290194,200.74130128038814L26.60574349763465,196.34791305358522L15.216744831084725,185.8680811902741L26.823863496159902,196.2586565988313L29.403372647196193,200.593251751794ZM41.16149381494324,206.4721575770527L43.2108991836385,207.2268846349034L45.42449498672704,209.3486608377425L45.781742033850605,208.1847663986846L48.59623693727917,209.1821491732262L48.31412802547311,209.84698158936226L49.15156615869091,209.4625508696481L49.86896256923956,209.6689227465249L52.894415684181695,211.52914267848246L53.70146267224209,212.02537805988686L55.34363793104421,213.65439926306135L54.77044484860562,215.50331208942225L56.86870428200109,215.03364627377596L66.92001895321482,226.00804750839598L67.75455484939266,228.62040114303818L70.6879073663531,229.73884226140217L70.92537547172833,231.3289496714715L72.9932181671129,232.0688836108602L77.85174134427962,238.34679381226306L77.93809738981236,239.02888497154345L76.22465411418762,240.84994252063916L78.81660984890277,239.3236927202961L87.7338796391241,250.08902213571128L94.62659017892838,255.5114792137465L95.098769929431,256.21428247980657L94.4692795441797,260.5674331066257L94.26640195116579,261.9704071654123L96.77256480432789,257.21937531934236L104.99764954261445,263.2461711850192L115.36953703991003,265.8880363179778L122.55914501890402,263.4617416797264L128.70307406102165,259.96114934250363L134.25994210043336,255.08506020260393L135.33545532629796,255.663999229233L132.77085413291297,259.7372147804999L132.71544196643754,259.8252253573737L132.9636132672813,259.72826198887196L133.6256340220698,259.4681629522529L134.15548538248822,259.2596866370586L136.48266890155628,256.4861592379166L136.31037484229455,253.2058903698926L139.7788612711356,249.8226354001672L142.14824917943042,240.5612087501504L144.6848543306578,238.23157499040826L147.12240004079194,237.624073120096L152.71203339277417,240.88689711806364L160.5990437406972,253.1388420239382L167.66508256260477,259.9490560500708L172.6400853881978,267.2865761037101L174.6454407444562,274.7827782757231L175.32558092123782,288.39326254383195L176.80257213560526,288.44627842339105L179.31930495610231,291.3567458735197L181.31068887659785,295.36905244280933L182.96137053780603,295.8211323184951L188.75548438993246,302.07760130937095L198.58947218849062,306.7764840896125L209.96206888176857,310.30607226793654L216.95073383121598,316.68488386509125L222.64252435958224,336.7017311742238L223.3535588268105,343.8585391343513L222.58944080616857,348.2944034417742L223.58626212709714,351.53453437579446L230.3383301633403,362.97703331231605L231.7489814774226,371.18521903522196L235.5010494009939,379.5296127523761L239.4475777654152,392.8154130363255L246.68231023230874,398.01024131584563L252.4120587976895,398.943243333546L285.38855181928193,394.67043543822365L303.85471632819826,398.2848934745998L316.51685426746644,397.3914890970336L328.8731365032336,400.3480560486496L335.4511829812727,397.5660990795586L342.9897631948388,390.65843038010644L346.7767625183542,388.75887445308035L350.8771571647467,389.6071163137676L353.31545296865715,391.9202545378939L352.2963685281966,401.40393459642655L353.8559318145208,404.1381171881221L363.35497686807594,407.69045594194904L369.11579136839737,408.7209371479112L379.13047991951134,403.5851507988118L393.7461842506318,400.2733015573758L400.48707294312953,395.02788300119573L401.07127917359503,391.9460553585086L398.68164845990214,385.90690010614344L401.31359981694277,382.70482387876837L409.88800184802585,376.8917045588314L406.71429078671736,377.3614376678306L397.88522752243625,383.91469725075876L397.24756790061656,387.72467620219686L399.32711280884814,393.61991102888715L393.8483940086817,398.65382063621655L389.4229604338634,400.64420033153147L378.8769285270846,402.22256573694176L368.9859849741624,407.2077589343826L359.5294864941561,405.53101501372294L355.0009274926151,403.6034447045822L353.8027353309535,400.46258640734595L354.58658162504435,391.52031366346637L350.98979747344583,387.5975245247828L343.8439377414561,388.4688774391543L334.710062507329,396.4963688548014L330.5532136868396,398.5661657292221L326.63247880590643,398.89360172930174L320.2792446605599,397.2322003855079L314.9516295873,395.7541412760329L307.70813975295005,396.51283614026033L307.13524259875066,395.22949137852993L301.9425999196201,396.6992447162338L291.76212388381555,394.10597790553584L280.9623509742414,393.4957363483554L252.4448120253519,397.0631693916512L246.5399276589851,395.13603759231046L241.48057156920822,390.98432242596755L240.2531995750487,387.5170134729997L243.1308870375815,387.0155019318918L240.17079340226064,384.7674617913435L239.8087584753148,383.02638491115067L240.67273837315042,382.9528539366438L237.6173284482502,378.90222289954545L234.62712101151283,371.11524230238865L233.43257127097877,362.5778864377353L226.7673769018411,351.5244806751143L225.72873779634483,345.42936621798435L226.29935752036818,339.4803416036011L219.35957950576176,313.6514312508516L212.31101165853124,307.57943019116647L192.85530777405165,300.56460898919613L179.7940017625897,287.2875906144618L178.58382247545887,284.01708341151243L179.5437028383394,276.2753667530196L176.2455795973392,265.5926851328404L182.11909167434078,261.4261331379239L179.3610904178222,260.74343868670985L177.7974288445621,262.3076369668124L175.09866974478064,262.8194159891282L172.7760813932382,258.73972646528273L163.32132613959493,249.027643112262L162.4626783211461,245.8822941078979L160.88616449677556,245.62123516510474L157.32992411921896,239.66751705075148L151.60760566892804,235.17228975897888L147.0490418265881,234.11955250572646L142.69040447490443,235.194023022108L139.40330318196538,237.5410236037278L134.9402500154838,249.27455312898383L127.34571007485647,256.29816187085817L117.34765925203737,261.84950108395424L108.760170209026,261.30901496636216L103.49097051937042,258.14600142269046L91.78869129607847,247.06855151348282L75.84998203721534,226.18445864069508L65.61245482698814,215.30542439952842L63.60049192391125,209.86404549478902L60.15463610884035,209.34989001450595L51.48483288556872,203.40081196141546L36.4264336871247,196.09545719486778L34.4122526707597,192.33717300460557L33.13669932020912,178.70472920546308L31.8348810357611,176.37867532792734L22.354845470903456,167.10208858858095L13.187002076982026,163.18007353987196L22.07647415887186,165.29227444028948L24.42419192064699,164.3246816616156L14.655847415115204,157.3130136555119L13.52418360919819,155.36161476245616L18.186590617595357,159.63821620718227L23.356952048616222,157.90390743286116L23.37892046523575,155.1603343944007L29.24606113072241,148.53552162687993L31.40854369270346,143.8536048522219L38.29743089211843,138.18440650496632L40.16554761137377,138.27785239290097L41.83404470633741,134.97417599731125L42.722624599717165,135.17126538680168L46.723058890811444,130.27617664376157L50.5195180526498,127.65964722796343L51.834535827593754,125.17859329545172L51.49660051210958,122.20787546719657L54.71955546105619,122.14201400784077L56.775726541906806,120.06172808568226L60.202349131981464,112.89872981567169L86.47927386878564,73.22754217041074L88.77175999450537,73.25127713815891L88.47190160286209,71.31854493002174L91.62996915722579,63.46966548205819L98.5083562040054,52.02104650178808L100.81018780113573,48.905730891390704L102.8634403711103,49.35741919785505L104.70646491787647,51.52365522584296L103.65745956056799,49.44766921774135L102.01979094403396,48.79327605853905L103.20293966644931,44.70825690950733L120.66917561301761,15L145.09913622448403,43.844257713644765L143.19592452511915,47.66001974471146L144.97901803384957,52.09786679787794L140.17839082278078,56.710672273969976L142.86638663113808,65.03922678873641L140.91050704188274,67.2368081920431L153.68466509085465,80.10805695905583L158.5950842939701,83.49868577357847L169.30907365086023,97.67866609967314L174.74119019382306,107.03423986383132L174.10708246670765,110.03503936660127L171.56770984894138,111.13164974105894L171.46710471685037,112.72248772004968L169.224762213953,114.7543702039693L170.3934415952035,124.93160756671568L167.28191610534122,129.30006624947418L168.5746376370771,131.15715923177777L167.30040605936028,134.10056186866132L173.36292112953743,137.03749061189592L184.8681925516521,140.12493537171395L205.83860303275833,140.54330694451346L224.26108006105642,134.18809187377337L232.38628008831256,130.81999510939931L243.93241696033692,131.01393746081158L247.87122124162124,129.67299118865049L268.73233727941533,134.7819074424915L280.4606057958117,135.1719401985174L292.8738602413132,133.8732366267359L308.9934247883857,127.79321874666493L327.74899747199015,121.15628818358527L344.6422068146476,119.81463200005237L343.64475310556463,126.90708713579806L339.84666040163575,136.8628994934843L334.7066697759674,138.94345709463232L332.90642517507695,138.18397009535693L324.76015685795755,142.5863159642904L319.94676302944754,149.77160011589876L321.6833248469966,154.72147190989926L327.6739463065569,157.33976267979597L326.40829873446637,165.55885145877255L328.0526425668004,168.15284288214752L328.37800410126874,173.6155521425826L327.36126196177156,182.5184869414661L334.37179482930424,182.8246041193488L333.446668107762,180.15528846369125L336.1231315930627,177.06668912185705L342.88749136464503,182.69030388013925L347.42821621101757,184.54668444115669L351.56780736477685,183.59373111047898L357.93900185047005,184.39030340174213L363.68531839145,185.74616341790534L367.9836515317884,188.65399032071582L371.32946738558167,190.2275277193694L373.35732656100663,189.05114194881753L377.55615833396314,192.1585756864224L380.87212752146206,193.93811519397423L383.0622844127256,196.6813134016411L382.4018306160351,202.0916330953478L383.8944632285866,202.28568874447956L383.7287096633363,204.68458285095403L389.8770764860019,205.55014979129191L391.4453488390627,203.3704801920976L392.32861478639734,204.33248661228572L394.04709648551125,203.15532633190742L395.09844498212624,201.09463389692246L408.16350296640394,201.45836043840973L404.56019414950424,210.32336500979727L406.50866728752226,215.65059496299364L415.54796260180683,217.40800587940612L438.3026667170934,214.62751107756048L437.41920466134525,208.42775340916705L439.3350145430395,203.8135264950106L446.0712910594748,206.67351674672682L449.0815812487863,198.64995317414287L457.2244757963299,199.92141300768708L463.4687843838201,203.98105297787697L467.00115167222066,201.22666629342712L469.5309044175792,202.096962297539L473.09056980151763,206.9848611356283L471.15709662640984,210.2292575603642L472.6450324847574,211.243006440287L473.76897556091717,215.7754439554119L478.9386728636018,213.5602370921697L483.7393741445703,216.60619705353747L490.14439250406394,216.05511582104373L496.5353662767702,214.4938114284305L501.77684742942256,211.0730321132578L503.09484156999497,214.14421041030437L501.53407023101136,216.08922669215826L513.5181311795704,226.11359686093056L512.5673220362833,228.81371590163326L499.7345826951514,244.83404113759752L503.5556704916826,257.99729412666056L503.307015033075,259.2044491726265L512.3635334196142,284.828484605212L513.3412600323418,292.52305231732316L513.9134847003197,297.37101184020867L512.3034579084433,302.62769034385565L509.6346059592479,301.99857736518607L509.2748844485941,303.2166544859065L508.87561141335664,307.224798103387L510.41610517035315,308.9484407659038L509.0165680351538,314.4715012899251L508.08160668076016,320.3533272097702L512.6788777563679,322.10764057468623L510.7432180685746,330.4373972337926L510.5092404541283,333.2423568291706L507.9893867185965,333.98786292318255L508.6079411547762,336.0206738602137L505.65361600040524,336.71353832783643L502.98892890912157,342.54416844874504L500.899747931242,342.2803513685358L495.50693184951433,345.8494527947041L495.1706500713699,349.37570108062937L493.6935598235523,351.67736546095693L495.50671398579925,359.09490808215924L495.1904366542867,364.46608717757044L493.7848410651368,366.5477011613257L494.3642254984452,370.89218024531147L486.3019496272909,381.76323683850933L479.42199088573307,384.9806247295928L477.0213423756477,384.31207587581594L474.3541131274924,386.17293979175156L467.8349160513235,387.8458922316786L463.64901651957643,394.7760979506129L456.1642464802244,394.4373709161591L454.14143195232737,391.2982324959303L449.13696358986545,392.5673524446611L445.6668268659305,395.20033208388486L445.3413459619269,398.15820506063756L448.2555078878622,401.15827427702607L451.6672783216545,401.951214762812L465.78727539971715,398.06413159982185L471.71787005211627,400.5344626950682L475.5082671230957,404.75390708629857L476.2389435455307,409.8168445666961L474.80328660171654,434.22984196370817L478.87845027281674,442.4592470167845L483.25230506843036,448.3336866766913L487.78557262473623,451.770890014217L499.05948911594896,455.2612293846905L507.63685331330635,459.84643852111185L514.2376279288692,461.2477949792519L514.8129979230171,463.1333245811984L487.11619204231283,452.81968058570055L482.1431514611668,448.5539258228091L476.62145353767573,439.9314322882856L472.60551053070503,443.8234721151821L475.5784709179079,443.57579748201533L478.6162156169121,447.0445281105931L473.97036464132,452.6217739285494L482.75729753622454,458.7424547332921L482.5354572693341,465.10867788869655L484.05199810575414,473.36905710422434L484.4824407904116,475.33194902338437L475.30005425002037,474.92122376314364L469.36636361327237,478.89252587468945L464.5019090915366,484.3175175074721L464.7246704988647,487.7674356024654L469.46898276913817,492.1691066691419L468.9690034369778,493.57486264192266L461.38167708724905,499.57242626702646L458.5859748551993,504.0251573284622L456.92000692972124,506.8309684394917L459.77811773667963,508.11817247781437L459.1689670928108,510.24128259395366L457.1863708798128,510.0574729152431L457.29375129610435,518.6180661390827L455.9943271177099,519.8033820028068L456.8073863939644,520.917575143656L454.36924555824953,525.3359184511355L450.95720392277144,527.9768498446792L453.1749377634478,531.4077830179885L446.9214640077698,533.0782111236767L441.271517537155,537.5410074611427L437.9535417060206,540.6474083651556L437.93808401423667,543.2527571754763L435.4697662360031,545.8310718451685L431.3028078943662,542.9508203361765L430.4458244560701,541.0685073212662L425.4832850916582,539.4603732767573L422.1907495127962,540.3581310760637L421.7853885975301,538.5733131946472L412.39626216565466,539.3189023850719L411.81908702551937,537.3058241922699L405.2719490296422,538.600758474262L404.45188521452746,540.2592070032551L404.72775009124234,530.8723586220585L398.15098677940387,531.0338420378976L396.07600782607824,530.9975446023745L396.3556035813508,529.4439860303246L393.17187613812166,529.1483690314926L390.8447626928428,536.0675262901059L387.7133081700049,541.2187184335489L389.84477418856204,542.3049237709201L387.6114810526042,545.5847163638682L384.793433092761,547.2446879682248L384.8593367325593,549.501505335269L382.3090366896404,551.2324532685452L383.87885380077114,554.6288259041612L378.7498094738994,556.174519280321L379.3686613385298,557.7035155495105L376.97094057430604,558.956799476291L377.9913522730949,560.3783110411023L377.0158556440665,561.6274998094304L379.595507004251,563.7289926636731L378.1501818106399,564.776601692196L377.02624098450633,569.2577740422857L375.4161553793401,569.1763858282939L369.3333751154305,576.926845077367L366.7451960863009,575.9490007610584L366.34982905315064,572.836116497725L362.84016398211406,571.1282464292017L361.3870034490674,573.3723352081724L355.8396739431837,570.1399949331826L351.60259181142555,576.9549180757604L342.17338061940063,571.0342632682878L339.7755111453853,575.7099821081792L337.9382601172101,575.4081826486508L337.7314888468909,572.9580841644492L336.41251446608567,572.8434291490994L336.375519751552,574.2973917907802L334.5105848145877,574.0062799359439L334.73038628122686,576.3449723170197L332.2633719380956,576.6672916582902L328.26247545087426,579.9231385061576L323.0661002868019,581.5716243302741L322.57560321711753,583.9820091917936L317.59437971726584,581.3202847433276L318.29509487609903,583.4845690219081L316.6702416636117,585L314.42168468200725,582.2919032303907L313.0780929711109,583.4156163076113L309.05774256184304,582.4989847593533L304.7744615562315,578.6843162451696L305.77128081208593,573.7309910542099L303.77800030046,574.724509480584L302.83083561892363,573.8419798448449L296.50589500105343,573.6295685361547L296.3612608166468,576.3015906355577L292.0377491080435,579.0497189808812L288.40591766955004,576.8992615627067L287.01234348308935,572.7793412095925L283.07978618299876,569.0977198227483L281.34483429249485,570.7014559240197L278.4467764114888,569.2336048050784L277.31607963813894,570.0811592697573L273.68382353807647,569.5932729079504L272.0452909152109,570.2677368822333L268.6204809968922,569.2843797665264L268.9827618585805,565.7235606978065L265.68745449896323,564.0609684587398L264.8245780926545,565.4071879068215L256.61940310248247,565.2154812395456L256.8693344855501,567.7139189098671L252.54108696998628,566.9715063178737L252.685018295203,559.3537303754129L251.33070656597738,557.5357948696765L245.86242357632727,557.7909232038364L245.23984016113445,560.0534202447161L243.28271704067993,559.5623124837002L242.71545123061787,558.5272387330187L236.2006645911506,559.7202070226776L236.5035123077032,562.2877985416271L232.72280306846005,564.758201473509L231.31533162906362,567.2917120635975L227.37782703501398,565.6110231369967L225.2541195809954,566.3214176814363L218.4902943551524,561.1109205955581L218.77631035635386,554.0481213288149L214.5685307601334,551.2465064411808L213.1971015309955,547.5020227649948L218.49516120502994,545.577802762913L222.30137643231046,541.6109456509876L224.25302312201075,535.3747737791564L220.70403785396593,534.5845379457169L223.67755814303473,529.368925407296L226.8998595475705,517.5380446285708L228.50296986573267,517.5520656751469L229.42812345357288,512.5415597649408L223.2926130009164,512.4309514971392L220.2925405647702,506.5357579534175L224.90774911964854,502.119248063158L220.43935936333128,495.7806147491792L215.27315752615687,493.0594256919285L214.74591391550803,491.0773428560351L211.14170141816885,488.82626610191073L209.28435511174212,484.7367910736066L216.64340099116362,474.51260054440354L216.90013604527485,468.0694944051793L218.01219388819572,457.37325314892223L217.9418514178451,435.93958268800634L227.5296991754576,429.88777117678546L225.12343435486764,426.58463199660764L226.3610255449721,425.57503424890456L225.67530760029513,421.7209587562247L216.16662697154607,422.513309224305L211.06141488697995,421.4752297967498L202.04679352382664,418.00717433169484L202.5053495389393,414.4562713447667L204.7447586412627,412.4804557544703L207.14704024997627,412.0626439839252L210.38277476015537,407.2656089119264L209.868317215999,403.19040173344547L212.8842605613363,400.65082874469226L212.82647310726497,399.1892825360119L218.93858099608042,391.700450257631L227.2040780473062,395.9596004438645L233.6097884705623,393.8993446933164L235.0090140729326,387.3843653826916L236.51306177168044,385.82228133414173L234.71305559398297,379.5572595333215L231.63927835209324,371.75714834741666L229.25518919418028,361.3951706122898L222.0058682964218,351.50989770216984L221.33445583343382,347.3442052707542L222.60474192497077,342.80643244003295L222.09044045107476,336.3164880965487L215.84659442177053,315.9352432100568L209.01800978838673,310.39789559025667L198.69352229344895,307.1552046625584L187.52844470735727,301.5973532209173L181.18090244735595,295.62098960916046L177.07961318215985,289.91373595324694L175.46360042118067,289.4613867852022L174.29332288037676,285.60539843549486L173.74964294656365,274.4598387822334L171.79411529549452,267.88287446377217L151.4529341051284,241.14915493919398L147.1224546151925,238.7843230086728L143.3162888866591,240.98958148929523L140.77387109927076,249.1864399263286L136.6026822724616,253.25199390394846L136.758453359932,256.6264778439945L135.67637470838508,257.9985593712481L133.7945700629607,259.69150023683324L132.83576797986825,260.0974350164761L132.68538311118664,259.9908145579102L132.62084312113439,259.7719256558339L135.07338872124274,255.88588154729223L134.15091390864018,255.32296353889978L128.6360359371265,260.23001824779203L122.29304618751394,263.8418322086218L115.60723421415423,266.04260185331805L104.87431617546372,263.43544276148896L97.13572513998133,257.78384408177226L95.0503838827999,262.9489612347679L93.85282396223829,262.33311495083035L94.14830499004984,260.3789109408099L94.7986631891863,256.0777405712288L87.48475154586231,250.20285640485235L81.78814427354882,243.4208516749204L78.73524844947315,239.54048441094346L76.52427514530245,240.93072223544004L76.0103999615003,240.97740496875485L77.76228730399544,238.81104417479946L77.73641252033303,238.57148365364992L77.73203410575843,238.5309512372187L73.02837838248979,232.47970361783518L70.7704521152682,231.48373588372488L70.67697506718469,230.05254254757892L67.52351163218009,228.81076229878818L66.7830979001501,226.22887522884412L56.87219563990675,215.39950536892866L54.65114043322774,215.74838585837279L55.20171551387739,213.71500225894852L54.02142858701518,212.69427748589078L53.31272278873166,212.08138594040065L52.86705447573513,211.82302823953796L52.64679943385909,211.69537035771646L49.26190906108059,209.73330208903644L48.85509953562814,209.82129341646214L48.16585584608765,209.97037908199127L48.277242405631114,209.52832120246603L48.33661731867687,209.29268117356696L46.54741076509981,208.65131097944686L45.22803753546032,209.52131379011553L43.11883892510468,207.4124718211824Z"/>
</g>
</svg>
