<svg viewBox="0 0 303 600">
  <g role="img" aria-labelledby="map-title">
		<title id="map-title">Map of Manchester E06000003</title>

<path d="M141.56027681623664,27.651627590632415L143.07048230322107,31.252659312202013L145.094059950683,31.060052152737626L150.23923167762769,30.126383957453072L151.26502404706025,27.415893435114413L158.98665121713657,25.94424946642539L160.8176312747746,23.45968678423378L172.4005721737908,20.399390493912506L174.18922665640957,18.696114466220024L174.59786729484586,17.147788829694036L175.81748058471794,16.9606861488719L177.33710360872965,18.19919121291605L177.52894914055787,21.129437566443812L182.07969783932867,21.421958467850345L183.96386170034975,22.285205218198826L185.2152568925494,21.84697418108408L188.77441720576007,25.731431605148828L192.73430211703362,32.226327883821796L194.37991119365097,32.121058223958244L195.0786774918165,32.92007561819628L197.52666390278728,36.54150955147634L195.40371661231575,39.6086345804797L195.66456957457467,44.04222798346018L197.25679155483385,47.19377567677293L199.4207048997323,48.83462501259055L205.93910249516148,50.89495909042307L217.00368534095287,51.21320824428403L230.12762852686637,58.43898292112863L253.20349158840008,63.86882826672809L253.16878332731085,61.94083824858535L256.3584838406405,62.520608447666746L255.88439585631886,72.69143414362043L258.1332489608408,73.72782606958936L265.36525460465873,83.27712554899335L274.6683507628054,77.80135443643667L279.49656407991824,86.96504754835041L282.018047966279,89.23356560851971L279.5677309177313,95.44589866674505L279.21165418477904,94.06376027382794L276.3278911384391,96.64523716882104L275.3990602753006,98.93622842401965L272.64856582494394,100.56872169584676L272.92353178440044,101.48414467973635L271.9441785462823,102.41996452992316L272.59669913780954,103.11115758492087L271.3885924508377,103.63339422873105L268.20112669964374,103.51519189846294L266.02859741568227,101.63543586844753L261.44568539348893,102.24093567233649L259.00079447122926,101.7071349620237L254.40405716534315,102.79479886381887L254.0027288070064,104.57009411345643L252.41880824355712,104.94285031234904L251.69050134184408,106.08147922861099L251.59077726834994,105.22343475207163L250.91759709112512,105.3480494942196L251.24370045400565,106.6371902742103L249.9377573028928,110.10357234060939L250.82255014154407,110.53053293004632L250.26931177151846,111.5758383924258L249.57505560012714,111.25632604947896L250.80415235733562,112.22950416074309L250.00023823666834,113.13738916843431L249.31282578077844,112.54182464486803L249.62292911772875,114.4557715390547L247.34110144741317,117.0285118038737L247.42690081077717,118.32312919014657L245.51601210310127,120.01664904311474L242.99180375904052,120.68290710680594L242.25474430845543,123.249233604045L243.60427624546037,124.35994279320585L245.4613416470852,124.21980616540532L245.83624326490644,124.99422033884912L243.85286330605368,125.67163453831745L247.56363811766687,132.1811040074681L255.27233870958935,130.79987449718465L252.39601719775283,132.76891925030213L252.9430959375718,133.35219580406556L259.1462951282542,136.78968147633714L263.47203539307975,142.41698515553435L266.05404069588394,140.91570142006094L270.22393917306954,144.25290595836123L270.59007565540696,146.7809150471585L268.4805267080583,148.00498169370985L268.6196834438838,148.66445419179217L267.6559101743892,148.56882900565688L267.9459916351334,150.65288059110753L266.6480931826736,154.3535868749459L267.362853897846,157.19664178772655L266.7895333106503,159.27249827167543L268.2891449718486,159.53745270011132L266.72938597496614,163.58965946323588L263.4100291705813,163.0982007396815L262.2986077552223,165.09496788014076L263.2594463391183,168.2858179484174L262.9821846416917,170.64674812578596L258.332740143554,171.61085348007327L258.50174996811757,175.3551713147026L257.27583100047013,176.46919738323777L257.48566090377926,178.4275234677334L258.3335804718995,178.3026060275006L258.56869196409116,179.3228322174109L258.01592315984,179.40440616046544L259.23785830922134,187.20883673708886L260.80608974522784,192.33366362443485L260.5548575822768,195.08025313194958L259.9320765279281,195.1469263744657L263.41046424573915,196.62832728675858L264.1243484455849,199.1694395027007L263.4063838217362,199.17613063110912L264.290930115832,203.0407913948875L265.0012078673749,204.04717488544702L269.6154260192807,205.72912204251043L270.72272394911806,209.7585995875852L275.71034956429503,208.51369957720453L280.0877959995364,208.45134986301127L280.9035911463666,210.89179150485143L289.2756548384077,215.5399384140619L289.44494895956814,216.34943499225483L290.0995129784583,220.74072955784504L295.1906646010125,229.81831074193178L293.36838381260986,232.69758623238886L293.49328677951553,235.0412907978025L291.34121625644957,236.82065566888195L289.9691569452393,240.82942766553606L285.30294291448763,242.12283237719384L286.07035016435793,244.3120552306791L286.64507563602274,244.10527479519078L289.6361878190851,248.97434195422102L291.40539317012144,249.57971549664217L291.01950523336654,250.39516332221683L288.63683214498315,250.5806704680581L291.1846223076641,252.8236546836415L289.4603692055671,256.9178541246074L286.40612471704117,257.53341725115024L275.89149508357787,265.29596924858924L272.7152385332961,267.12011769814126L273.5236729416147,269.73475574744225L270.50721315423334,270.29293773547397L271.19060413974194,273.9853905678756L263.3550567919633,268.5049940336321L261.01342429771967,280.68492287739355L251.93564837574968,284.63339275558246L253.4555363021359,286.69450509194576L251.093530040318,291.9773538984591L250.08765028615562,296.6979411082575L249.9362866573765,305.3548274794157L248.86921510356933,312.58033325763245L247.92919873748178,322.64335292093165L247.0122545344202,322.730790111018L245.50190763146793,326.4018711740646L243.76287015318667,324.4999114669772L241.69910146160282,323.67593174592184L241.75459468730241,322.88420036708703L239.96960852964548,322.6256804238219L240.42277144936043,321.96319773477444L239.77426029886465,321.4688367421477L238.30547403279388,321.73810816519835L237.24520283843458,320.4982941059134L233.6235148224123,320.31722398819693L233.1531773306515,319.15356540506764L231.45839078228528,319.01267311569245L230.7405452510302,317.82460521026223L229.16423832291912,318.0817536706454L227.8525200253198,317.2610092643299L227.77482256790836,316.2240720274567L225.93551758009244,316.2665152915433L228.2651916623763,320.2385238986317L225.66621738745016,321.22739182788064L221.2658881121606,320.51518760777253L218.40372405951393,336.9026210685406L218.2958009558265,341.3462601185747L212.0580934739155,340.075974215928L207.97231003629759,343.51372267643455L203.82021662853867,352.5792719076271L199.43698467413424,356.60632199794054L198.72342786231593,356.0749517289514L197.72762856487816,358.1764528283675L194.464182832583,361.3989134235162L194.13496096444123,362.44664153878693L196.58303818380227,362.3794134075579L196.1274552245768,365.5234867434774L195.01930779020904,365.88229967385996L192.91831076192375,365.01198738612584L190.85226217658237,368.3986332516797L184.61388868864515,365.69271505373763L183.13063482282178,377.5687508974952L181.3170621574236,386.6530224166927L182.77858613386115,387.60251239905483L181.23709361664305,388.2956858723919L182.04802164521425,391.34266668354394L185.99699602736973,398.9715653156163L176.31238958310814,403.24418938552844L174.60974104024172,404.2407583466702L174.792316553609,407.58210610292736L173.7243503852892,411.1099560459843L169.44140328097137,415.0457255463407L165.58173607291337,414.53721994791704L160.89174456875162,415.991432094379L146.92104557300854,415.4287402399641L143.58209231793853,416.08817622782954L139.4940149496697,418.9629353004857L136.28577753780382,419.837375250223L136.47499643062747,421.14579889214656L136.27434922301381,424.56300972281315L129.16213591056157,429.34792519247276L133.18339883185536,434.85762170721136L130.56184582478636,435.58242854372656L130.4953296845688,442.3697426804574L133.08220338027013,442.49846311191504L133.9998463600341,445.1054316182126L130.97813514250083,445.5562683709577L130.16741247410664,452.26301184845215L136.13999513814088,452.65036866614537L136.45621277806003,458.2969050360407L135.54173525397482,460.24672631055L136.4445408844217,462.9509588980727L135.40030984621626,465.63675346487435L136.168573328579,466.95270552972215L135.71947321857442,467.74237343158165L137.25695787222912,468.46021249709884L137.01511439096384,469.2766825088911L138.50798505681223,470.83533656394866L138.488306606911,475.3588323664735L138.37520317822327,477.34316585933266L136.9980452023956,479.7120294379274L138.3059201857791,484.9136307296576L137.7091155258854,486.2890540385415L138.07042894060078,488.34163968959183L140.054801331808,490.6813777186471L140.67041177148667,493.42094360030023L139.70792672393145,494.39225819078274L142.1412464668465,495.9574603480578L142.6951342026755,499.66514538381307L145.5878135270982,501.34136774354556L139.18457044149181,530.897115286265L133.61695796996355,530.3284242865047L133.53508172761985,526.8076708348817L131.85518586593525,526.5433641692944L124.57072877843166,528.0666465551476L117.08884669340614,527.3353981286782L113.18879368037051,527.8295339678443L109.05475031880678,531.2129680494836L110.5433991547834,537.9367013522569L105.45869706639951,540.4482591274573L99.63385119356099,546.4632894785318L100.78187132945686,547.3041456803476L100.32758090774041,549.2435816497164L95.92081701717052,552.7703957427148L95.5410384054453,555.934568263765L87.68555403899654,555.5842817069497L85.13495168807412,556.4841071713745L76.8010538817498,561.3791025426035L73.02151364619112,568.7413635042903L66.38674822360372,567.242762426933L62.951054832519276,569.9689410695864L64.34330501046725,571.3832595165877L60.9134270022214,576.7516219715908L57.39128228628397,578.9681614041474L55.35815246528409,576.9417045517475L50.776643878177765,576.815555995956L50.04146381992268,577.5360146269377L47.82430610077563,576.8752825121337L46.31203509822262,579.6237447350577L44.431099737974364,580.0540432100534L38.67410281454977,585.0000000000291L38.119339428264084,584.7173996639467L36.17028559310302,582.5785311751533L45.097282668392836,574.7468613664969L43.95775941139982,572.9842773559212L46.764966192861266,571.5801520289388L46.33831241684857,568.5245895994885L43.671852369879616,566.6182946324261L45.97483701889951,561.468675658718L44.61010316095917,560.154343387796L42.72998107755075,560.2547257285769L43.11758731619602,558.1105157929996L42.256798192301176,557.4390964138001L38.46969603988464,560.1626877430244L38.493680203373515,556.3849107619753L34.93082308420344,555.5174943198363L33.36628585599601,551.2563043124101L31.544856318966595,548.7788234953478L27.753835537728264,547.7025191660796L25.548731049967955,545.3717394865671L20.587479366683965,544.2532159008406L19.718243679408715,540.5613683326083L17.13370707293643,538.8048948989453L17.636623892370153,536.8772557451593L30.85147090719829,534.2140783540381L40.736189162992105,529.6932929260656L43.211433160258366,527.4172133984393L47.126681234314674,521.0212370723748L53.05804684302393,501.14043154986575L56.546406496254804,494.35989514495304L57.287609029137,494.37187959303265L63.55359884633344,485.6161050968367L64.6797027035368,484.50835173342784L62.09554567776195,484.2260601785383L59.83081209891907,482.7041943596414L53.02790427665468,471.82908481276536L50.49155286702626,469.28755352860026L46.611557176331644,467.78995402224245L41.08853949022978,462.00329179444816L40.52173148059137,460.1766091527097L42.29355312930147,457.0814271851559L41.274393982540914,454.5359113546874L41.5114346940436,452.7232417795458L40.89108677121976,451.2344596226467L41.35228831783388,450.48931306856684L40.26268139420472,449.02000095114636L40.65737391332732,447.89224775142793L40.07731498112662,447.68198962762835L41.079377107505934,446.72683332132874L40.627666251715254,440.2221834854572L34.913607119910466,432.15027951316733L32.55745147680091,426.48646932581323L28.693331002453306,425.5745290537161L7.8093353989884235,386.0041273384559L10.605550646881966,387.40367788456206L14.55221239147204,388.02953487748164L19.775511616963286,391.02085431161686L28.85237108557203,391.12149993485946L31.08203607937685,390.3683123053488L33.706806493215026,390.8928296822123L34.939017033583696,391.6862174747512L39.72989596996922,391.19518739198975L44.67395766506661,395.08998333706404L45.41259642567911,387.73127940981067L50.878181819501606,380.59035823216254L55.98162197021156,378.8266882491007L59.33552109179391,375.54541363182943L60.58640557572244,375.39761419422575L62.02847129513202,376.8240303984785L66.6011735164061,373.4303190469218L68.96305427947891,373.74891595204826L71.52163359092174,375.8095346871414L73.01475062153668,375.6408768791589L77.77409078553274,375.18400033605576L76.70544637584544,369.5391298508912L77.0866903057763,367.36658891158004L80.07708594064161,365.46180155426555L80.73240639771757,364.3749518649274L79.99511794263253,363.64659326011315L81.65654284592893,364.32378935471934L84.67882746327723,355.7024403643736L81.3099652646315,353.4890542083449L73.04332417858768,351.74825542466715L68.02436911634868,348.7177174274839L65.23612616919218,342.48998058184225L64.23704398242126,336.9661281473673L62.88645245591533,334.1637038766785L58.97288692721759,329.12723529529467L52.043520909203835,327.34955243709555L47.47026187825804,327.92209807732434L41.10412356638835,325.23839252722973L40.547702268837384,317.11674271782977L41.38100252836466,314.392579000807L48.238273442411355,318.45734939836257L50.337838563275454,317.9150432870374L48.454392517635824,310.28439147812605L55.00547786251627,309.137469754045L57.698787400318906,303.3464996638504L54.98339847458965,298.21377997356467L52.07069200151318,296.83014882922L52.28873584873918,294.53409965115134L52.70250995997094,294.8581278974016L54.4753559897008,291.9417546432669L58.06588631573959,292.78652343955764L63.70290312969246,281.6028564450535L74.4914731600038,281.301795943873L75.11567807487063,278.5452993262588L79.55183513742259,277.550610665101L85.66913770592919,277.4818481786351L88.25491458448096,277.02086325174605L110.30117062327326,254.45515543101646L117.77160143890796,251.33019541743852L117.35594095865144,249.76507474656682L118.50410059641354,249.1669157307333L118.0788133812348,247.70707685100206L118.87559716498527,247.44605440992746L117.64368122733549,243.47987353599456L114.09848341590714,245.11442059726687L110.74542230360521,244.52994996547932L107.37687248382144,235.57794551571715L102.80382379640741,230.44300563327852L99.70038564575998,229.18096043429978L98.79897359406414,227.55474697587488L99.71127211071007,226.71900278968678L97.81545151865203,224.03345272224396L93.74134593932013,224.10642002245004L98.82966519319325,216.2849000584538L98.45721140890328,215.67701727450185L100.55645664294889,213.14181062200805L101.77853433613427,207.41786108841188L102.84347424560838,204.50771982384322L107.10240664821276,201.42278760419867L114.28437462725469,193.68308191548567L125.65479318738835,186.44268574623857L130.59015734810055,181.80331680199015L132.0198509097213,177.73030838668637L131.5544208604715,176.26466814613377L130.13233022574695,175.28890595238772L126.14128368059392,172.39582535048248L125.37263616658811,169.39615122669784L123.08049910183809,167.24958371541288L122.76746720101346,161.48141264637525L121.18781663524487,159.18422616932367L118.10980736650481,157.80044079688378L119.73319619679842,152.6320155284484L115.82893851673316,146.99388657363306L117.21709018685715,146.04060445672076L114.88767610410332,142.0373726470425L116.76258808612238,140.70345623258618L115.66610168837724,138.54220470960718L119.95162461944983,131.59454069199273L119.450733078736,130.81097985507222L121.34563383136856,128.69158428607625L128.74455731458875,132.90597135946155L129.5915269537836,128.8282734373497L131.63395027911474,125.87042937656224L130.92056691694597,121.51937072718283L125.78986849234252,119.68035306125239L126.31700256912472,117.93451636312238L123.34759006592822,117.10932581439556L125.19818186881639,112.97231445128273L127.0768709984286,113.2794195637689L129.57875656159013,109.19277137830795L129.74720910857422,107.22468968290195L131.81476283045595,105.64150363714725L129.01226950431692,99.59033637731045L123.5020927702717,94.06045040550816L112.32572840848479,89.47710869951698L112.84148529109098,84.58574596232211L113.53754984636907,83.86786295411002L113.1138060768535,83.01847399106191L116.88095919166926,81.8778904354258L116.5629910379298,79.08523568781675L118.21435855221625,78.68774280029174L118.08533930413887,76.91097933509445L119.13163397697235,76.77420707138663L118.11749021972628,71.86270106988377L121.47567513917738,72.52603792473383L120.92755596909501,67.65285005835176L125.87563365782125,70.31901436661428L126.27081918097792,69.45406313425337L129.46172647772346,57.94484566067695L112.67376668604084,63.72341260584653L103.17129176428716,69.77818099668366L100.4572056023012,70.64176790002966L97.57813720412378,64.18315152192372L97.28903824401914,55.16118815932714L95.00496308075844,45.196925109645235L93.51224000415095,41.92328713275492L94.39623506085718,41.18423655984225L93.37558543206524,40.88928349221533L92.93610589065474,39.26632904204598L93.24185557678629,35.973184882328496L94.79518035784668,33.340697417908814L109.34857911232348,19.062803911263472L118.87117547109847,16.73802332278865L121.00726818475368,15.000000000029104L127.1778237111962,16.254129203458433Z" />
</g>
</svg>
