<svg viewBox="0 0 189 146"><path d="M44.974666237510334,87.9411721161432L44.145390082651346,88.3538498634116L44.04732787119127,88.27919078487321L44.10001523682067,88.37091248856632L43.4808753153243,88.62857899217306L43.966469733685344,88.04046456615833L44.83837115383325,87.86562756849708ZM155.62427544109198,83.70885282533891L155.54109396578104,83.78768687039883L155.50186911948936,83.7174449336344ZM45.11681834201431,80.64037263062346L44.96321913769053,81.13137508966793L44.92030577047974,79.92825499146966L45.09323605216484,79.58317685781913L45.252730948081094,79.51777030583617ZM49.95255686830357,74.55324159588054L49.728795923051955,74.93035913886524L49.65341337183379,74.73359947638892L49.91553626128114,74.55145732361598ZM53.54308020807017,74.64042992505529L53.57884013434519,74.73524318926866L53.30874796311978,74.51023295092818ZM50.549771767258974,74.29232050809878L49.991507296602094,74.77556562983591L50.20622779307478,74.4188129252907ZM50.72918558072085,74.21666399736932L50.60575344729972,74.25585410079293L50.647868063545644,74.1834397452185L51.16916963049606,73.9345831323044L51.593026812251736,73.88523098732003ZM61.18031388090432,73.60167292115511L60.67204158413334,74.00314741522561L60.99933398931187,73.63786345032895L61.252835518672384,73.50237398269383ZM92.0732504013901,4.079375102339327L93.08524305892242,4.422637628207667L95.3961762263385,4.473713230736394L96.44146718400643,4.834104588126138L99.13234333357977,6.572858892222939L100.05198301148448,6.860096910153516L101.20391987886667,6.866738103219177L102.24719472820092,6.679325011269611L102.78184976264453,6.4265266757320205L102.83519070280047,6.5029080462099955L102.96496315307016,6.493430922173502L103.21154479565664,6.706698456011509L103.83187336031929,6.713784766960089L103.96238518682517,6.745667059589323L103.95337302047803,6.829628921059339L106.1394621479011,7.036253929407394L107.20608193869474,7.091929821062877L109.03602783298997,7.4968953008865356L110.7060590628746,7.59082121636493L110.88748360657377,7.5936163325823145L111.04424356243707,9.035709511488676L110.82685009723667,10.663263297818048L110.82259413442347,11.080358594888821L110.99531497165297,11.616980916009197L110.85495923239004,12.141951669111222L110.79637833913422,13.415575011311375L111.14993537678623,14.142652256525253L111.30857621162698,14.403795834545235L111.33933036317056,14.67500511882281L110.73560336036282,17.13693490552214L110.72337907224552,18.572302471498915L110.63353961490587,19.46979411954635L111.28123719265145,19.36728408043564L111.67897278394484,19.492804663423158L111.44460266444989,20.063010369136464L111.49871349542275,20.367735055808225L111.82503910928433,20.462023340791347L112.27110350182359,20.391951675554083L112.39345605303748,20.67327267214023L113.13552240608126,20.332751751466276L113.46768861003304,21.000425672582423L115.34581344305725,21.107590207178873L116.94544613462024,21.516039562020524L117.51091972009176,21.451279303302726L118.07233095898803,21.222179345477343L118.14959276740599,22.38634434742744L118.59116918986919,22.53326552479666L118.49615727370805,22.957382261194653L118.60503572234634,23.23217081189796L118.71441169498286,23.466606324564054L118.41476182098681,24.21221516503647L118.32132723005408,24.757718371478404L117.88084295116465,25.43066425413599L118.46973475413492,25.881085328681365L118.9473259333794,26.432851350460624L119.42556365547385,26.70492397135058L119.40019353844768,26.85546950119533L119.77532294117461,27.210927005429767L119.73211905080635,27.32862627511895L119.93338333738593,27.394302511153L120.2121963145853,27.687932294296843L121.21086377245153,29.029823504855813L121.22524173929092,29.175603020621566L121.7928769705691,29.685817436457L121.75026343313026,29.79303742727643L121.91478019765178,29.919298576265646L122.53521526658443,29.503955380150728L123.41890417216568,29.343345596185827L124.53270570636543,28.996454366319085L124.66311703144993,29.04571347664205L124.80773985095895,29.27832754902738L124.76949078579888,29.579703114550284L124.60334265910895,29.70961423328845L124.29941267232702,29.549213379023058L123.91140401166852,29.692598864690808L123.5513936425011,30.175256208507562L123.46854771256841,30.743301583488574L123.64447719812718,30.658318226409392L124.43342682924558,31.191127354864875L126.1488729665372,32.47133246427802L126.54181173488887,32.88214444251935L126.63819272184502,32.93875957002456L126.8534403936924,32.831534740620555L127.26947686573692,33.141087175683424L128.72939721967225,33.70045420493261L129.80908673038658,33.001112746906074L130.26151567266263,32.91363162221205L131.20537272021474,33.1281223263577L131.77322730942848,33.77591487301834L132.15106689391683,33.643557579505796L132.15214660670262,33.53027493556874L132.30159443406515,33.41600938330703L132.92923119603924,33.183673196910604L132.74490843066982,32.74420178940272L132.77881054316117,32.4926667441141L132.9441113285915,32.06044010615915L133.1707411226556,31.96532533070058L133.28121649699293,31.65715914116481L133.37826308227537,31.625456762683825L133.15471499136152,31.032058234666692L132.86623437021638,30.657288221773342L134.0961649508218,30.024632865872263L134.54276165000817,30.948188523658246L135.23307627898143,30.69861939695511L135.3231130264388,31.00764999689818L136.55525980465754,30.524637583346703L138.06054865566364,29.510957242899167L138.46386260805588,30.043493199826116L138.61286708585092,30.042897499070023L139.6530416677009,29.310890105345607L140.0570645270009,28.57882648105624L140.64851586192873,28.217534567071198L140.71400171913677,27.962244871732764L142.12246935147007,27.2416845217449L142.6272565708546,27.242317261689095L145.36827436004944,27.34454729105164L146.31921673260416,27.31257799726336L147.8047122746528,27.574066518722248L147.86250051207554,27.500311761197736L148.5087495294646,27.64179675437481L149.15958502097925,27.970420324851148L150.5211706545014,27.22796949082658L151.60433322495413,26.924875157106726L151.6500901464383,26.49219215839912L152.05119772697816,26.4672330684607L152.7813322177314,26.958905095934824L152.8529823530343,26.89513126525526L152.79522876861762,26.565318197432134L153.3001738032307,26.602654431942938L153.5190186131628,26.918824692447743L153.60703308522153,26.70860316472681L154.66197664547758,26.499438816386828L155.13242739154865,26.54965881789758L155.83938399493456,26.76629868328746L156.54176693830235,26.684940037726847L157.57285475067525,26.167802110578123L158.37851385562305,26.066240318426935L158.34839912872434,25.99508570249054L159.5047803733552,25.34198647784433L160.4681092532797,24.988071390505866L160.89572455051922,24.43606597867256L163.71648658586258,27.061601695781064L167.00079025442665,29.33748194754844L168.04237644336905,30.449247069516787L168.331051854802,31.09940808436295L169.2260117573005,32.158237398032725L169.50336404919435,32.456634122730975L169.4530457505414,32.623825255363045L169.19576345008795,32.79936819611976L168.8898047243724,32.751070410595275L168.12478612530208,33.07747642606955L168.1076405926773,33.62382870230067L167.92842153783067,33.619201444231294L167.8156171659939,34.070814486922245L167.50507602821898,34.391593415008174L167.40530482487128,34.37034022068474L167.23951698033062,34.648179265390354L167.25915917779685,34.758400139271544L167.43084380019516,34.84776709393009L168.08953464596283,34.869080738937555L168.1613405571639,34.990462033290896L168.71926058847163,35.172173350434605L169.4684526625114,35.38478260504053L170.63395783826613,35.45120594744185L170.73185246080624,36.226421465700696L170.51834917824434,36.92324948620626L170.68761930981523,38.209165416712494L170.85693784861257,38.630626082212984L171.10599209572905,39.50027682724249L171.47637140975576,39.80300935343075L173.21777385705713,42.5513881916595L173.86929127718386,44.160624869418825L174.2222138905619,44.38801340670034L174.31005801300932,44.70063360966742L174.21205764004344,45.05788211253639L174.9556400805246,47.455872369844656L174.9743924376535,47.52352972853987L179.81146517899242,47.003962343998865L180.29199240558276,49.73472497883631L180.5484026924624,49.785932430682806L180.9598623627112,50.09553944737672L181.058027706004,50.63911042839209L181.72928047924552,50.978514395612365L181.7829573554684,51.46312663802564L182.38938539162427,51.36864322337169L182.95476709863846,52.07440825177764L182.98939234357812,52.90653244751957L183.3060373041211,53.58954385715151L183.18526154599175,53.83817199186342L183.7265668162849,53.80195343129526L184.24911759172915,54.98139662815811L184.1280631575966,55.402494979800395L184.23618916286068,55.43578136174801L184.27499999999998,55.661803596669415L183.72317987260823,55.818506675905155L183.7574167773439,55.561613113406565L181.81177659029254,55.656986794005206L179.27803884124955,55.95320670499132L179.27445143376292,56.057331236113896L179.17449699063445,56.075997307536454L177.1930730724932,56.25936842146439L177.22198222523056,56.471826146726016L176.44501386594672,56.63336380368855L176.56189877374695,57.43461243179263L175.00624458528108,57.659638523020476L175.0243060949618,57.719544020523244L174.5034202141212,57.69612783112643L173.16082585690182,57.905266915580796L172.00780637750208,58.251710764950985L171.98317269642484,58.16608814199935L171.7142037290385,58.24654980002015L170.80966398470306,58.19531326999095L169.67003386957975,58.517745609684425L169.67839467798677,60.97699013824786L169.73882445875395,61.095058397793764L169.96865515415902,61.128324121555124L169.94454289897956,61.66057079045095L169.5981482127341,61.67932253803883L169.3910534437109,62.30023276005886L169.31607055872496,63.39883643589201L169.02365831364898,63.378089595362326L168.59730304462215,63.22749614703571L168.30490483270927,63.435117575032564L167.2216545832968,63.39332535480935L166.90234570993996,61.0336794241648L166.7329293659898,60.63007391456449L166.58742911221572,59.65665024918235L166.18609082100977,59.70606449481602L166.16854355924096,60.13835317331359L166.04278829827064,60.089904243171986L165.6246437050465,60.43822128385909L165.78739008738756,60.930449097615565L165.5210290105735,61.46908157130565L164.88698921511283,61.169557210329L164.5004356251675,61.78011809134841L164.43371506944646,62.25817455898505L165.19395860544157,62.50959775806405L165.2718309407877,62.61956728602854L165.17885204078996,62.752864851721824L165.3228907625684,63.09476363009708L165.11677134417073,63.23902247802289L164.32114879067367,62.892479856076534L163.67905868673566,62.89829184466362L164.52254670739796,64.80902603103641L164.2741238563125,65.04478773459778L164.34485680176888,65.8299560237283L164.40754667579418,65.91484886199214L164.59906760283826,65.87586550747255L164.6877494183638,66.78506918945823L164.2793422470511,66.87147081014336L164.2469810158621,67.01796684896544L162.88484461824498,67.22572432147899L161.93098910914543,67.17997288853076L161.4368495028242,67.2546110813164L161.38651605741336,67.47921918967222L161.3066394129896,67.49583285921653L161.43288273467815,67.971009755669L162.145500950731,69.72124801153404L161.70790393501994,69.89405652307505L160.94026365426285,70.42238746203475L160.7932038924629,70.21976161614839L160.37795214034102,70.25258396526624L159.39368245328518,70.6717843608858L158.9676846818591,70.7058529565893L158.78356054928537,70.85754976422504L158.65318746462393,71.2080906476458L158.55339753147157,71.20506506338461L158.31053670651693,72.56369421178897L158.01737981245202,72.83739727747525L157.81595747103557,73.00514684133304L157.63411408131665,72.91947803030052L157.56048686530255,73.03488886690684L157.31371005296901,73.08117669765306L156.0091131683842,73.20949007511445L154.99665901289305,73.55708867316389L154.01885047717244,73.56670945560472L153.47114458939893,73.7096798898092L153.1539811631697,73.651645511467L153.09693866856685,73.39685479410218L152.52989051270575,72.68725830307994L152.32564811067977,72.1178166929567L152.24171040331464,71.20115578416335L152.04459613647256,70.70007438621724L152.27481372128085,70.52110621235443L152.16260230741943,70.47197777931797L152.2260074309662,70.27695930515256L152.13372957252514,70.2477802743997L152.13988173032143,69.97918374931942L152.0103382302441,69.87390838327883L152.03657812007742,69.69220963267435L151.57171947480018,69.0641878796032L151.57496335912487,68.74876168593073L151.21754982721723,67.69992167090277L150.19796959329963,66.707488114027L149.84555578403263,66.6444528020802L148.59591252761408,65.86093109369176L148.38380138462753,65.705909309876L148.30410016478442,65.5090292214154L148.07440026077572,65.52403537232385L148.0267959163926,65.43381602704903L147.79770488334242,65.53212110471031L147.2507520451394,65.48581001712773L147.1504502101742,65.42599246919599L147.17345807935362,65.28992627712796L146.9944969409327,65.340867358158L146.9030626158082,65.4171382901095L145.43671361370235,65.12708428623591L144.1130129519394,64.51653046435058L144.25200512966643,64.52215305293976L144.19060280511422,64.3264325353939L143.93918604448953,64.22408234771319L143.84498270513356,64.43735789150196L143.6951248729289,64.26854258731328L142.9112804589065,63.54607356366432L142.2361007292612,63.19498745189958L141.55886682969805,62.99784207168523L141.38791552688818,63.089351087763134L140.10954974180737,62.85996239280212L139.28534323938828,63.015764974128615L138.5876049458753,63.304055430222434L137.56272551657813,64.03189214134545L137.58529225068474,64.14225898078985L136.43668089148417,64.63575893093912L135.93339096203522,64.74260955748287L134.61516021533959,64.5266829478569L134.3735403215175,64.44413238656125L133.57023293836733,63.70161203947464L133.5037948405897,63.05492086990125L133.5917401088302,62.47656496850868L132.98248852105004,61.77213794451927L133.04318715083025,60.92337991287059L132.81795895040023,60.392828547865065L132.6907639923644,60.54195503511255L132.48859833332432,60.58934013408725L132.1378150380719,60.32723546322086L131.50129167942708,60.603506749514054L130.45538774699347,60.003125338325844L129.85329413122003,59.35148402419691L129.4809626013116,59.27940247298284L129.29308062255123,58.57252719727512L128.9712692636242,58.133589484043114L129.06277697765637,57.94465794543066L128.86839072841286,57.813697486493766L128.41906715602147,56.77466419159282L128.22365879296913,56.13604274111276L128.02592370389235,56.220522201743734L128.1127924447972,55.52224269022554L127.90775953242945,55.12591543900635L128.07205510550048,54.4445431975073L128.0500717948389,53.723722414652L127.96589156421186,53.42426657604301L127.90582270721464,52.74844991602731L128.00886236399873,52.292823928770304L127.82677787645194,51.94043296728705L127.6535919007367,50.79352654135619L127.33475617721137,50.13271966540924L127.66084790660025,51.014879418456985L127.78643177027887,51.96789158561296L127.96337834801399,52.295839373207855L127.85936408157072,52.829552846471415L127.92175557925292,53.444849131496085L128.00527201062243,53.76312572418465L127.99816578470724,54.42184417564931L127.833532054884,55.104438542701246L127.94032757317926,55.36299207383672L127.81446956355082,55.51931647260972L128.00844308060667,55.731446091294856L127.9468629894077,56.24011033206625L128.2285640591524,56.34249528592591L128.35160332715367,56.807184655957826L128.75370433247838,57.70529372868259L128.74663391892776,58.053114236296096L129.23050353305692,58.71431462118562L129.29973314335825,59.31267305529582L129.29372535264386,59.29743900891299L128.8059989817639,59.467712770237995L129.23550546187664,59.41536584547612L129.756742665749,59.53440960493208L129.9343008943009,59.65228418732295L129.83792386354202,59.72085703648008L129.7375128196138,59.63960978049545L129.83212080093648,59.77417989170317L130.00987824484042,59.787542844855125L130.28314507151737,60.098118459265606L131.3646232199625,60.75206378765506L131.61323540243052,60.753022239801794L132.1319375618525,60.53363331645778L132.38258034455163,60.77011966963801L132.8218630451021,60.7504320190983L132.83357818514466,61.30712284522997L132.55215493869386,61.306741526017504L132.77062131532665,61.472220693931376L132.75498491673596,61.7732992863057L133.32395110318402,62.557701214424014L133.23841665646023,63.26674246424045L133.40514656382746,63.922448450508455L133.82422306775712,64.32784968645865L133.60123545301767,64.22586997811595L133.33640438617633,64.37622712763186L132.4501859666068,64.47620289664701L132.49285283003312,64.62462611941373L132.00993871247562,64.8188474492672L131.22769896844844,65.33272233145726L130.9760501719532,65.56000042365486L131.05001236728316,65.75078622839465L130.80649886784082,66.11288164648249L130.48874540323797,66.56442203832921L130.31116973903022,66.66628942842726L129.84558178301492,67.73979453634092L129.62921280673064,67.8270388007968L129.78735370678524,67.94552678490982L129.60202469114097,68.2029423898075L129.46940080863425,68.20070560618842L129.568310414349,68.30060595840405L129.26869802899594,68.73111775799589L128.98105955923603,68.78193005802677L129.13863267019397,68.96367600732447L128.92085355276726,69.36178694122282L128.31451207759136,69.67482610666411L128.2282283461994,69.61615946405072L128.25948676827488,69.69200491187621L128.12046860257408,69.67792447740976L128.12887790759123,69.74912779145052L127.90863422847022,69.80125323028369L127.8312077019501,69.73270249110101L127.84232512645617,69.81657754214757L125.76246330985593,70.05637987506634L123.76579961584278,69.64537518740144L122.46439332208568,69.51673015510823L121.55743247527501,69.53837285017471L120.68946624655497,69.61245926734773L119.35252900796436,69.92576810982973L118.46772174290057,69.94513423749959L118.43849079521118,70.08287050933723L118.27845749047964,70.05293599792094L118.27236775021642,69.85155084711914L117.62835981888348,69.73847885082978L117.02984455270332,69.30780650252564L116.35164604096066,68.47463206975044L116.40933796959146,68.4046398336177L116.33347936082667,68.44432946182314L116.18646939000088,68.24057251642625L116.03385612806964,67.99518269238797L116.09667694490915,67.82762603340234L115.80745692533914,67.71365253581644L115.30505315830796,67.18179037170557L115.48308972343747,66.57831807850016L115.35453006444065,66.38242774648643L114.63802417476963,66.07910150679163L114.98999390947361,65.20072968069508L114.95962302125173,64.92179144839247L114.76545504626075,64.59132542932275L114.50395153908876,64.5484888068022L114.24294227549618,64.80160340529073L114.13858535094116,64.98649706407377L114.07880089862984,65.64921766826774L114.0072612437363,65.76617220190747L113.81561962441207,65.79194824432307L114.19686152349396,64.48012721958548L114.0080344232153,64.17777376610866L112.6842548535432,63.162666613317924L112.73151719957455,63.28443401164441L112.39043264682721,63.36023234667482L112.148278055593,63.720865118863L111.88120245257213,63.08139444782137L111.43541132388629,62.66691819148946L111.4098987320025,62.38715303261415L111.71373373288317,61.68576543146992L111.73645608546258,61.15402717505276L111.87000829422723,60.72950031903565L111.89398814872156,60.64808472643017L112.80261379555068,60.268415368702335L113.38887260743701,59.83906417518119L113.43031760376559,59.52234796040284L113.62684957292133,59.14040426349675L113.48301100429727,58.894524217768776L113.0828682005505,59.884779502042875L112.75200985152959,60.22399543424217L112.46654587354011,60.31516277101764L112.38238081128034,60.242161046919136L112.27879132459469,60.432367654602785L111.97973463519497,60.538847578152854L111.8450286345141,60.49797382393626L111.76522267736247,60.2418922670513L111.55532101978096,60.203885001667004L111.78134043147993,60.607814438704736L111.73530952882076,60.77869052308597L111.57543589193372,61.64203257810004L111.47276491416204,61.720066262672844L111.42042580504969,62.055808874516515L111.26499285569686,62.05617861596147L111.29053898635861,62.71890179710135L111.8287076245033,63.276038426665764L111.96399316614895,63.88116736126176L112.1152991113826,63.964282413577166L112.32859317309281,63.898200963185445L112.52704388159655,63.487821954600804L112.6951833172472,63.43679656234963L113.82978713922314,64.21744188249795L114.01753509372584,64.53697188109436L113.61190716429756,65.77714174986431L113.77545106769028,65.93864771816698L114.16217131113211,65.89579567927467L114.43261981607114,64.85936262159157L114.5576133154307,64.7494038175555L114.69459556026197,64.7838997469189L114.81093576309888,65.18074673436604L114.42862346656848,66.08195013668592L114.603263025765,66.30798649977623L115.14558140931352,66.48083966868217L115.2033826922819,66.66433216859878L115.10856294205753,67.00462572761171L114.48702956314646,66.70331767021707L114.03321570136893,66.64507118703477L113.97566323275187,66.77745818960466L113.89699713777671,66.69541094951819L112.80546173347372,66.99610794964065L112.09045637039927,67.78677125389731L112.02619734020125,67.72694676136052L112.01684393522925,67.95835065603023L111.7989952868531,68.19419549312079L111.87174959494563,68.2683819619615L111.88188518268247,68.35775586103955L111.84151162320593,68.27808935225585L111.774150321203,68.3191751991526L111.68080921564496,68.5178621516643L111.61268200540816,68.99557717848984L111.40303092338097,69.04300540799159L111.58730578066948,69.23051902786028L111.69537694563064,70.0914919468978L112.04807668860234,70.92438796197348L111.93102132049654,71.02655316214441L112.34781590822367,71.63047686920254L112.59749994822472,72.62143456267404L112.46111662478238,73.2768287758663L112.28796108735015,73.5162651717128L112.15115895972068,73.39888853970842L112.25718457072611,73.5553508469311L111.85841903645277,73.90225931489294L110.89360732163367,74.22637001563271L110.47885694964258,74.28295014159812L110.42805645828479,74.190661729961L110.43822071102343,74.29044354774851L110.25725503441343,74.29934055445119L109.7569280705849,74.23568064067877L108.69577904315581,73.78398557795481L108.10933762091503,73.2088224796189L107.78110065083176,72.71343422973223L107.41549227929988,71.65861181199398L107.66229346232562,71.54948040769159L107.35331295709508,71.46433832554976L107.31761237227218,71.29934495382622L107.41317205374412,68.82684696777687L107.55499323833848,68.36154729708142L107.19281358469557,67.57383650324664L107.15146952038292,67.80100125013632L107.08869004080019,67.66258335126622L107.16218613769364,67.69867200877161L107.19194139505532,67.53786524724092L106.84715076728057,66.96096032223613L106.77380630402837,67.02944605857738L106.5332379200547,66.82385395267556L106.88488460123494,66.47630129014215L106.5265929578113,66.7059939240462L106.30009859040703,66.69527885576463L106.1946999526856,66.56861142054368L105.6053646827451,66.38558988578006L105.56344069416652,66.29166667759819L105.50418136262346,66.35306259653407L105.27638650889503,66.28763338172575L105.3946149054442,66.0840186793721L105.19934877426938,66.26896972111899L104.28784351128756,66.16798331076461L103.44932508335779,66.30652430950249L102.80034281744935,66.77464342850908L102.67312521468533,66.74143966538941L102.73794777625815,66.82766810952853L102.52073935737201,66.90574675892458L102.32452974768273,67.20868354386948L101.57171972676697,67.82767531605714L101.24403969278363,68.24784718616502L100.53876803133275,68.53262690068186L99.58111153811154,68.32655383758174L98.78386662379664,67.98591231726095L98.79031964640629,67.81065080079497L98.63852606992246,67.95441520854729L98.16886788760672,67.77547392056658L97.87426104370778,67.45338225498199L97.79551014305846,67.48817222445541L96.3652260745429,66.82491071062395L96.14774571425657,66.76234727605151L95.90766741297077,66.63804788068228L95.06766130528906,66.56744617813456L94.38722821841665,66.45313399602674L93.68379592629788,66.29185240779952L92.98802942061589,66.04722342813511L92.99224949176616,65.8964622029489L92.79883842623765,66.01555505043143L92.00065986827721,65.83097993874071L90.17825593546007,65.81099562501367L89.51854012512267,65.82986541388709L88.76341545871594,65.9360233833122L88.0722501941216,66.23744558557883L87.7373634126752,66.50934954147306L87.43434924734188,66.97318862822249L87.06974930585861,68.13224967190399L86.73107119605754,71.31257889492736L86.58333658344264,72.35864949232382L85.92116114114458,73.53027803589612L85.03362863915346,74.3895917573318L83.87027428726745,74.69155763837443L83.4013012771021,74.68052831486966L82.30079896761713,74.41238508826063L81.56232776448388,74.43541428720528L81.53282096228628,74.2086349251258L81.41582555367503,74.25665002771893L81.50323746146586,74.44650783825819L81.34600663715516,74.46248540946544L78.4057232059298,75.08968571658443L77.0799673109212,75.38959816764509L76.26276875815287,75.73549108292355L75.88668151524506,75.77153877013734L75.42654774263823,76.24461311371306L75.4880382080066,76.30909658426935L75.11396128537626,77.01798133721422L74.79213180671493,77.04097357828323L74.52024937045437,77.22365419099151L74.14159145818317,77.21668946233149L74.09319781628972,77.30360915314668L74.45122072718564,77.32756083719505L74.85370920002316,77.12664001887424L75.08938788720364,77.15677059520749L74.7173006505461,78.9611466259903L74.01130866371119,80.55287666705954L73.60986376406734,80.96346677820111L72.72945546527974,81.379680794058L71.9243189265093,81.51323951080667L71.31495018124625,81.46749070833357L71.26675777951394,81.38526202437788L70.73895990430606,81.45881034904596L70.20514209730696,81.35326661974432L68.4923444021609,80.7291850125057L68.46912013446376,80.52631480148193L68.3729259022722,80.66670537950449L67.1647624835658,79.89670352244866L66.04603216567537,78.42555788338541L65.89233439147617,78.0702694524989L65.68713827563471,77.14722532368978L65.59627153008094,75.75094745163369L65.67660175155842,75.68411579258282L65.59101174304661,75.49993556479967L65.39258966993256,74.87725020005928L64.83959056780922,73.79202274466843L64.62500511320998,73.3292072339209L63.66640535288662,72.81211832050576L63.39866728821609,72.77400719201432L62.08828965065103,72.8839660955673L61.55000956141009,73.1038101369104L61.23685905728845,73.3634780083994L60.56992177910324,73.84130539857688L60.13714888948423,74.39170587163972L59.76866775294202,75.67757049823194L59.75007006117734,77.2299392842524L59.329158494807835,78.38107769629096L58.96721677748641,78.87010597628614L58.20661568125776,79.24308717781787L57.43505796762977,79.29133343957801L56.75092101624016,79.11297287382149L56.00822341122356,78.53443756506749L55.21357654671211,77.45421798296593L54.658982323335934,75.82414567966589L54.31576183440076,75.14077471070414L53.362828406001164,74.20194638059911L52.17019008479793,73.658902350262L52.11199341559313,73.71128257857708L50.988155261881836,73.78907875683944L49.66278495730571,74.54065428824833L49.348968900751586,74.98446831833644L49.44879833916614,74.91923215056704L49.49375897808531,75.2129334542442L49.3335726973544,75.0409214337651L49.19373634090833,75.12764444001914L49.337213582765656,75.10856541993235L49.39846455636073,75.24111649715087L48.539087907505134,75.5171644656366L48.56275709940121,75.57974386208662L49.327956033979994,75.36292293289989L49.42427765059923,75.40938445238135L49.283592860596976,75.70489735431147L48.6891145862985,76.36754897447099L48.56583831810673,76.46724432122937L48.49400562221794,76.39495247841842L48.48959390884926,76.62575863773236L48.33076406637561,76.91254539642432L48.2512593900572,76.90732310903513L48.15714074278523,77.30982848736676L47.962693959095034,77.61450966138727L46.876714711756435,78.45642475245586L45.38360646519892,79.23127805496733L45.15086567244607,79.2992978525308L44.87479577323525,79.57508555729146L44.73849699673052,79.57686597605607L44.85823654214364,79.60294888896533L44.68694584236823,80.1043246471163L44.79425624262247,80.44631503687742L44.825167628374516,81.31760097941333L45.32501267378662,82.13884443824645L46.47600968179029,83.25069934693965L47.87803188336409,84.15538235538952L47.754737147155254,84.29861449369128L47.915631595280246,84.18418230620591L48.18938089336278,84.47226784009945L48.63666416739157,85.50306668909798L48.53246576758515,86.02571656267537L48.22454892735118,86.4506444849103L47.53494123942622,87.05084089544107L46.08883764804244,87.638497727723L46.0827973008784,87.71506860108639L45.344627816065724,87.78214499189198L44.87827043626555,87.65973493215643L44.10999707995573,87.75870359813416L43.67759773041416,88.0663723857524L42.979746578605955,88.99972207861174L42.77269582609756,89.45244566838846L42.809519803025125,90.0539996133175L42.67201695645639,90.28800956896703L43.03867602443589,90.64765324599466L43.25041636639993,91.09149189104937L43.20335693041311,91.26374187194233L43.30760676829212,91.30784617870086L43.38911373262363,92.06732303200442L43.863453812304044,92.82949074508178L43.81747774892743,92.87352845955138L43.98061654597117,92.93738575625866L43.920575391605496,93.03477941374513L44.01604658678529,92.98022044888057L44.750259430172676,93.4905911484584L45.20197118852455,93.60372165477565L45.4988384362906,93.70532645158346L45.52105430326735,93.55002179272014L44.29804506142976,92.95662406504198L43.71398959921713,92.24570668816341L43.56707821476074,91.88528209868855L43.554081822928524,91.38097361177279L43.26714564503271,90.65195547069561L43.38330077968527,90.67056458479419L43.236450143216686,90.588976777668L43.05322269457328,90.12890219995825L43.064308361786516,89.41247309518258L43.25993923316723,89.05859191367927L43.57681552107999,88.79645724617149L44.78881291783061,88.17285698944943L46.432569167426095,87.86305312221339L47.49240443808192,87.47606937604723L48.19769696805588,87.083991621319L48.84505495498043,86.12779828568091L48.90062945947727,85.77587668974411L48.85849771304696,85.42689427622099L48.374475819551904,84.37037218697697L47.737494604278865,83.54566169720783L46.496108912491536,82.90862892464793L45.758417034293956,82.2234100027872L45.238299593372574,81.5533294873876L45.34975036986101,80.30897228592585L45.48113907898262,79.70569022884229L45.67208153137888,79.40370152368268L46.442897611834525,79.06565448415859L47.29021242145332,78.54519740463547L47.99006514731626,78.06095639736486L48.93467257260639,76.52924168551544L50.42367541691207,74.71010217305229L50.748303638137024,74.47476925969022L51.45360927721577,74.20289465369387L52.14928914092936,74.1083302154766L52.753139055413364,74.31290964621257L53.5742026425822,74.99861920256444L54.10077944790649,75.58343087126013L54.3612578919605,76.04711468199457L54.97235570851048,77.814812256398L55.3257492278925,78.4264794445844L55.710417095641624,78.84023419189543L56.28477286699701,79.3247984504651L57.091458756569615,79.6684515365996L57.90319688477469,79.6423295361401L58.24934701468675,79.59746748917314L58.91571594243696,79.31066396737151L59.41739276906047,78.91985744962767L59.76065841919856,78.5083777857617L60.15035603240313,77.67859863004924L60.19622050779501,75.67798698869228L60.39013252680001,75.06017800696463L61.984438410092615,73.48496809061726L62.5016542184293,73.28736364648648L63.15800343141976,73.27894703736274L63.64670884606427,73.40132847422319L64.04439032544103,73.63976037774228L64.42757195472184,74.04706604195599L64.75170011500404,74.59051892161187L64.99429982568243,75.95956340784505L65.0472163301417,77.62325270433757L65.40440622296106,78.45446915464163L65.83457353393823,79.11550018399248L65.67648626501736,79.19485441673532L65.73197145191733,79.2302819884444L65.87360881768244,79.16004553421408L66.99937181982486,80.47871112969915L67.99125560183177,81.26486636726077L69.22765519892714,81.85046500021963L69.98230611412528,82.07681691091238L70.78369388528179,82.23160701949746L71.66203202672472,82.18206726995231L71.75704802727981,82.43918306645901L71.75014864756675,82.95651712815925L71.74076859427552,83.16377349668983L71.96108928138827,83.21740703499563L71.83125766566567,83.09418701905997L71.80857973070172,82.57213627400051L71.90055276580671,82.69135489327527L72.0145409658085,82.66225086625855L71.81115037317446,82.18114742898433L71.94336353135719,82.24519180601055L71.96240210757851,82.1557255554344L72.77034661385727,82.00628244748987L73.45431237497112,81.73285996281447L74.11306791990714,81.31609559596836L74.49596637786824,80.94988479721542L75.1591725577863,79.72647650617364L75.28729362930989,79.68423504283601L75.27286657869283,79.51287431398487L75.39770836266078,79.54116260668525L75.29020588224736,79.48045715929948L75.47098208693363,78.784978073194L75.55368481130503,78.77169093120574L75.48488638436073,78.74295628495202L75.58113639912685,78.27039085141769L75.86972296090542,77.64940181309794L75.85902490167214,77.3651184194805L76.20458143067327,76.70806138240914L76.663708607253,76.28812173956794L77.88758991794651,75.88214870251068L81.53647857533238,75.08396704327788L82.16271691139855,75.1133649148469L83.41457018946251,75.38994691687367L84.03608638090702,75.39964612060612L84.04612846474765,75.49878405594973L84.12956316527715,75.49384958248993L84.16813059797087,75.37414859058117L85.1750345110669,75.07988516364458L85.44669085961357,74.81628504832224L85.92852028289427,74.61119949469685L86.54640614175881,73.97259863637555L86.72010616456745,73.66011213405909L86.83217761590062,73.66176231515237L87.44012600438295,71.42756503139572L87.85946921320769,68.1900639833184L88.07755531388806,67.54833064910599L88.36188855544977,67.16791846506021L88.70324637182341,66.93031174011776L89.54340288233765,66.64999163934408L89.6803242672234,66.7358799962658L90.08199672443799,66.62061166622334L90.98000592348184,66.55817607996505L90.97853257940142,66.63894745698235L91.65856117412234,66.5681276590276L92.92763383073118,66.6620233925878L93.66795518367508,67.03070648322137L94.02750724391144,67.09817902278883L94.01916611382049,67.24206122212308L94.0723571598682,67.10580466066858L94.50520125352469,67.17121144950943L96.00699041940231,67.49236318356816L97.96209037888505,68.41427847790692L98.17696257002126,68.64484357241781L97.60699027501727,69.34621810047975L98.18586244292679,68.74922674835761L99.67907213169211,69.2941273827073L100.65640826831394,69.26355277724724L101.30024168251765,69.16855052347091L102.44934970876048,68.52023678633486L102.90974482527368,67.9617019509842L103.04385575869635,68.09248297475278L103.13485024658951,67.7591061926214L103.24251138304865,67.67472961695239L103.43082442720846,67.76088057095694L103.38453193968931,67.60049016213816L103.66598817822143,67.45716802379684L103.6352859335155,67.30978851469808L103.80130909025196,67.1400240690582L104.09758804346127,67.0388892606461L104.51455582536377,66.95144456380513L105.08078183007179,66.97832623953582L105.66505976418416,67.15503993342827L106.03778633113035,67.4265445976016L106.2577802499059,67.87367279222235L106.23406562993429,68.01528470868652L106.36575601065877,68.02958710192797L106.36464510044152,69.46520453830635L106.27639108979146,69.47695761098657L106.33921367786147,69.73946760164654L106.23514480342094,70.54704207006216L106.30148386904028,70.5525158674136L106.3251120431345,70.85972163512452L106.24236905745352,70.92906487580694L106.3204410939592,70.99966938717262L106.28956605684996,71.41997227841239L106.17534069359417,71.47525683954518L106.30699716073607,71.51259253807439L106.35330326009252,71.87660113632774L107.1106520009028,73.51813784773913L107.96221276069858,74.44131753251531L108.43720715039647,74.7858494706852L109.24430242464277,75.13816742178278L109.3780174580442,75.65371854914883L109.73276903378846,75.77574423426631L109.60626782299765,76.19546568136684L109.1767629819638,76.41503551066307L109.11164258831035,77.02371668212982L109.02944314814873,77.01688157946228L109.12597833839402,77.28694682391324L108.98809043568818,77.3123777542969L108.76074268096143,77.61173151400544L108.39460803157596,77.74305581362569L108.79691954091733,77.6670594132047L108.7879038800667,77.80836335950153L108.40449564089758,77.92171621713715L108.74764150941074,77.96140801252659L108.89234786253189,77.80781668306008L108.85695891424788,77.54156847181002L109.02096643679567,77.3992442077124L109.08774531100163,77.4667642748409L109.23933488230273,77.25133279184593L109.20983274400736,76.94869369628395L109.33917809580267,76.54779777983458L109.65516292062605,76.31286798108704L109.91143481586619,75.76063792195419L110.05095111845866,75.73218593859019L109.447212686819,75.47318594187527L109.44288932580024,75.23629992460883L109.77293322362863,75.23021491976215L109.77375397736482,75.32451523488089L109.95898796995576,75.3725415495428L109.99981126441094,75.26739669042945L110.88310043371754,75.29235197561684L111.13786220864506,75.10305877459359L111.70100666701957,75.04041426212643L112.26182796357081,74.736650363433L112.53069764376717,74.67152318870103L112.81141024592765,74.40771702548955L112.75498089254235,74.32018138672902L112.88738238346889,74.20495094262697L112.88574617212012,74.32130274549309L113.27429339935655,73.99012017722816L113.59485788067613,73.43410050930288L113.6637606840055,73.44612496189075L113.76673605898851,72.93910288404368L113.74897489910116,71.8946083774972L113.66205589288295,71.92509098310438L113.57770726596053,71.54680874875521L113.4493012521783,71.4133561415183L113.51050524393506,71.28110664148335L113.42968116323435,71.04298023922274L113.1855031149648,71.13274365982033L113.0253410951044,70.73639544307298L112.76420594627749,69.45683885104518L112.75659888586782,69.06094032119108L112.84801859706941,69.05699080489103L112.83762589180766,68.85362722572427L112.91847779962777,68.81007183752081L112.8165998537821,68.77041644532801L112.88449955886479,68.50498909034468L113.42184573300531,67.95900759556935L113.94753656439627,67.84131253252599L114.340669684194,68.03307045776819L115.68931954047093,69.88799043006293L116.58512619244159,70.90707724017739L117.32914502416698,71.29225771254096L117.86175016966065,71.39884241881009L117.83494452040864,71.5489209074276L117.92069114648473,71.57249015867092L117.98955332504104,71.45275824462078L118.43092535734989,71.60106686519794L119.41763196852882,71.58269032087446L121.8056502459453,71.05824053210927L125.51865125855869,71.39744147344936L125.58682205769074,71.53390455911904L125.60007357948037,71.40004382821098L125.75763164045246,71.39711421491847L125.78059492638266,71.4849989184786L125.82859768107909,71.39020767817237L126.868752653819,71.37872698704086L126.8802887038475,71.30625267301184L128.2022659274908,71.15538683108025L129.3929790970021,70.83686254614258L129.45285655670986,70.90798911181992L130.77060430146972,69.8933829696889L131.66954493495533,68.30031162066734L131.87366768559508,68.1482281785502L131.94517097212682,67.60614427465771L132.81662384593255,66.42694144006418L133.36223222637702,66.44535485417873L133.94210983757134,66.26197125949693L134.56455113878667,66.19813403662556L135.9754105214526,66.28918935310503L137.38116056233162,66.03576626629547L138.81078449280213,65.59417721202772L139.86010169461463,65.04759434378502L140.5932743312674,64.96232653114384L141.05658883301018,65.11413187871949L143.8488154418826,66.86536948804678L144.5984595188995,67.24137352376056L144.72596783854843,67.17783561454598L144.7317036342255,67.31688547916383L145.05197972898344,67.50421548245868L145.13253772248765,67.32776528629984L145.4154242224494,67.35822293826459L145.69694989701628,67.3201272365859L147.23027255673287,67.57650786306294L148.2087123674654,67.95268292521723L148.69727630444746,68.36474898855522L149.640067178935,69.9946184771361L149.83001084367015,70.69945466096942L149.9497572484638,73.34004279216242L150.14480438141516,73.82928030786206L150.28258033917945,74.00752500741692L150.3487706090882,73.97571218814119L150.50637750251744,74.25989137461875L150.43083980387726,74.30739482797071L150.49866817626707,74.54067653137827L150.66676952971665,74.54292161162084L151.10440720576108,75.13426189939673L151.06515104399057,75.30107686909105L151.15573568232054,75.20059236146699L152.27744204752258,75.97205217753799L152.92406453167894,76.1864040013188L153.7225109428374,76.42375866108159L153.7405715880983,76.66013697265225L153.81493405276655,76.42622440736159L154.2151920916052,76.41766464706234L154.29283692727756,76.5354586788144L154.5411384260758,76.57946077960696L154.71602313266456,76.46679877697898L154.96266892031358,76.52519078065416L155.4750614669047,76.45401456719992L155.4861654157765,76.5741100152718L155.68466415903114,76.34824252183898L155.8369913639076,76.50821534031456L155.95452366066877,76.27591847650001L156.092261374903,76.26870872656036L156.20351971486937,76.65407232902362L155.95277415757118,76.7939087070863L156.2340022489766,76.66911719691598L156.15943114434444,76.25537989865006L156.25352592012092,76.14091081802326L156.86131198895217,76.0351911380385L156.95667379898987,76.18455242299206L157.1186184597017,76.08534253068865L157.12805499869916,75.8936962201551L157.74083586061516,75.71415016278479L157.8256927187382,75.77475903549566L157.9824333001468,75.48254005843228L158.2580295403042,75.40366923676629L159.52526040579048,76.18220548118188L159.3291497440939,76.26622655459141L159.16780105615985,76.51774309238135L159.17356748459534,77.33104602916865L158.29358040406902,77.77109603948338L158.15354860629452,78.07851339221088L158.18347007898694,78.66096075199857L157.66187855553392,79.16191118032475L157.5032571401566,79.47734117967411L158.12172828049717,80.33450951467967L157.9019001357519,81.20832248749684L157.95842444752066,82.29028775505685L157.37699389646437,82.61680864284608L156.71860792852718,83.17215602786018L156.32730369906105,83.73494950663007L155.48124573814,83.68029834690788L155.20125675735358,84.00336352634258L155.43165729818367,83.77211497247845L155.5392075332739,83.87111680592716L155.43079125305437,84.0873106565632L155.58993417656876,83.87417877102416L155.7002329337323,83.71789291364439L156.43418584840634,83.85603710894429L156.32789013076143,84.4501176488302L156.5824315700835,84.51641831570669L156.60280106527512,84.64348481886373L156.4671350812645,84.8901441391281L156.49206181855115,85.08977634421535L156.35181907169454,85.23409110112698L156.2045068202529,85.17532623536499L156.06813662072585,85.26206077179631L155.82297218808327,85.69017107562831L155.7139873839558,85.64975358286028L155.5896366294318,85.84641422939421L155.3512206909582,85.94757229286552L154.91964667866574,85.96742915785399L154.89931581999406,85.76702832369483L154.81824790492402,85.88827099118316L154.7215404099741,85.84669553878848L154.6989739586507,85.95649988212062L154.53580644418042,86.00837300743842L154.46462927991632,85.91140462715157L154.28887017347546,85.99543309594083L154.01827091933194,86.34453164217302L153.86188974911428,86.98981337419355L153.40228548489839,86.87292434347728L153.31380739377116,87.04826070854324L153.14568230520567,87.02051608894726L153.10756109258418,87.64262228981897L152.42976027430853,88.399908247653L152.29753213535042,88.34900752379326L151.75075020474753,88.56127242099137L151.70887647613634,88.78616401954605L151.42994881058598,88.92450775548605L151.24904749277948,88.80189971949403L150.67320659079166,89.30389863597338L150.20288316668348,88.97171211829482L149.98826645623836,88.95397447341747L150.000524603224,88.88100532005774L149.5854934297102,89.57621569850926L149.12011976892921,90.84792921541339L148.6896215372658,91.67637360752087L148.72263224628261,92.73540639872772L148.5632304905664,92.911667792132L148.69038101540343,92.95746352316382L148.62343890853913,93.21468566337171L148.58216603989692,93.30702091051535L148.45567144548912,93.28057176920447L148.1873736044889,93.88212293266042L148.0817652423003,93.87378054470537L148.10122517668526,93.76362387485096L147.414801771349,93.51049237382722L147.23231822108474,93.67135232147302L147.07246181644308,93.32276601409103L146.97602615452752,93.35611302819416L146.38968735568312,93.10045628497573L146.26755070053963,93.74899688218102L145.94066513611511,94.24424505942989L145.84609465919144,94.99691757272194L145.88832074943366,95.58091155705733L145.7790959601172,96.13465879022078L145.3867595514495,96.66318307203619L146.12634835473267,97.33175322675197L146.0109946902295,97.57307373045478L145.364770516048,97.62303869634343L145.38577739787982,98.49333370199201L144.96165760477692,99.3894266173811L145.08755188004648,99.65437575835313L145.94206883919577,99.7883854626889L145.76392108265907,100.66005241388848L145.47951825730956,100.67068703404584L144.99394031286036,100.5126015807964L144.92547795481426,100.68903334406423L144.9069520740291,100.7369321014412L144.8621566042982,100.85702971060527L145.364360790639,101.3556108243065L145.74051279769003,101.49024140461734L146.2565969489928,102.27497006047088L146.19660131987388,102.38142134813643L146.31287313550672,102.40998860829313L146.5087508943869,102.77874233423063L146.70566541763202,103.36180241058537L146.78384355823277,104.26044455871488L147.0500774219353,105.05332234611888L147.77393407248184,106.18857012600529L147.54620547850254,106.22964933408548L146.8998871205992,106.27399941725525L144.65985390356528,106.08267085253647L144.6158332183049,106.30236201963453L145.10528360858726,106.74001125483483L144.85405884884403,107.49116147288805L145.016209131319,107.76837884494307L144.9067142066584,107.86476136391138L145.23784209445273,108.39425256337563L145.13856883328526,108.45476881751893L145.09771974174961,108.78545273365853L145.09493419248676,109.19416518893377L145.23940828386796,109.27042674889162L145.21960361655414,110.07268895724519L145.0569838499286,110.07372913501786L145.05802000212955,110.41449648150228L145.38126333202368,110.48038318926046L145.34750604953362,110.75669187854328L145.64061463092315,110.89125038753082L145.60591130348024,111.01187142643903L145.82845231384698,111.1140207610515L145.6797397089544,112.07018085751406L145.50944956808382,111.99990925076054L145.05522115916924,112.63147470964759L145.31752263248936,112.85701622655324L145.39668508128545,113.10688751488306L145.16715250603193,113.79832111403084L145.57776734318398,113.95622084038223L145.48460591289827,114.40410767639696L145.35816232428976,114.42336321654875L145.02066708647428,114.13712168026541L144.9012419948458,114.49110913961704L144.5617580404236,114.86895299151547L144.7887808276647,115.08790414386021L144.08714568415908,116.28704224352623L144.16006110892397,116.4055745626647L143.97069208880706,116.89652147129345L143.98381064796865,117.02279002036448L144.1596181850457,117.14310904582999L144.04449457637094,117.79087735263784L144.26722430554622,117.86264606853001L144.2158591930652,118.20966971593225L144.1010399489137,118.70060178440326L143.87398923330178,119.00785069677295L143.78573491047138,119.63581366726612L143.68128416942218,119.62509706419587L143.6251853465198,119.75788999013275L143.57066178153508,120.41314712785424L143.22275779718376,120.61363793661076L143.28722522741157,120.73862308513708L142.73990062960928,121.50619087512678L142.90564224954267,121.58268768031849L142.89455789274933,121.69075667336256L142.64515030198805,121.65590679778143L142.41723136549223,122.06903407932805L142.20532647591722,122.04692287664875L142.39870054633823,122.43346324887716L142.36654278681283,122.6468482256114L141.26477229799767,122.19339893249526L141.24183550808777,122.2998946622356L139.86876474392196,122.07041630567073L139.23633211795104,122.48254844306939L138.43186049939723,122.6561027605294L138.24689813727232,123.00284461003685L138.17150373494925,122.99117121290146L138.05433397641286,123.62459734774347L138.18232487242273,124.14263408666375L138.43497862893386,124.0743299616679L138.55049528977653,124.51607172587319L138.39844746216752,124.61116326791125L138.76247128147583,125.8587559482603L139.11831549727916,126.23425849907107L138.8123478285451,126.74453473625908L138.31177197343678,127.26049115877868L138.31428974317137,127.58654107186157L138.19925176154135,127.64840632436062L138.0459273579147,127.47072949767971L137.85484872119966,127.63966826631622L137.52894261715755,128.3574713751459L136.66609578541863,128.1403553932414L136.58207970836403,128.60039385842356L136.04599426963287,128.31469436297448L135.54917141235407,128.35242547856615L135.19593244104942,128.8347161002166L134.67515705016615,128.97431260040685L134.57817766320693,129.4201927865215L134.40711933376357,129.68123228988225L133.6942849798869,130.43505161855137L133.19355420240595,130.7949773383407L131.90896896894668,131.4492437870722L131.70405705803148,131.83018121562054L131.3228874643939,132.22812050866378L131.4531572561194,132.64949872816032L131.33167706104655,133.39321931348059L131.0129762409159,134.09763536974242L131.26321866684106,134.83994238450214L131.1224401813571,134.9408689074662L131.29077590630692,135.6226800046843L130.85233026184403,135.76254538813373L131.4087372233899,136.82183869944674L131.60149737394045,137.62019742105986L132.63206192783426,138.7577738121472L132.2231494489211,139.00974717581266L131.46422571171686,140.03073195890283L130.5897430603612,140.4552610808205L128.84326284378227,140.5336892306841L127.60876079484461,140.9492499888238L125.6834939857554,141.29928258167638L125.16032831223677,140.26498036743578L124.8072517670721,140.3691423604505L124.0416306344059,139.7237766315684L123.5538133755849,139.8137983371107L122.96593550396491,139.71784168309932L122.76082308219654,140.02987535243847L122.25667099641144,140.17055334292309L122.45157944817952,138.84129181877324L122.66112367478878,138.1613973606909L122.40476258009586,138.00038713393405L122.34306140144238,137.34377815728476L122.07001311485425,136.6619746063443L121.94208796455665,136.7532356379088L120.96790672536042,135.68449024171605L120.23900787187993,135.12060424180345L119.6802111230184,135.78821781765328L119.19025697568445,136.0851366533916L118.52280054313184,136.9458183467741L118.25916235965266,137.7794040216413L117.69643406041077,138.77444141731758L117.6796762310496,139.18473897328658L117.30266740971219,140.50686324062553L116.43248281655863,140.47218506306126L115.82614248989665,137.81541745431605L115.02487536203006,134.15430051972362L115.44109963835105,132.18827418509682L114.63978161987939,132.35293338476185L114.41966284191695,131.40444985384966L114.27602373651735,130.1685118904661L113.72824808382765,127.7651243291657L113.13330595793532,127.88781150771865L112.88369464598867,127.36740276686578L111.70717542186922,126.31910478845566L111.72649995744666,126.2143330421768L111.2964456525971,126.14263018468228L110.92784156448529,126.23698559483637L110.9726462109909,126.42033176872792L110.7125492736806,126.48764370230492L110.34738510330327,126.95247184298387L110.19327502045437,127.53841068856309L109.85059509005399,126.78625613435179L109.6188059905229,126.48337025148976L109.45879342292162,126.47352497812426L108.86877558055284,125.03996381076104L108.54991197921724,124.71480681676985L107.72027634524413,124.55800979263586L106.71599549828377,124.913606569271L106.27165992761766,124.9399189975702L105.90503555167072,124.72036968563407L105.16666298160646,124.52942538647221L104.77336949669746,125.01174814184196L104.31588106682243,126.17465818025448L103.34055519205285,126.28602763144772L102.93221868679781,126.52215023553981L102.55200083815278,126.57323277932119L102.59219437924752,126.77295581130602L102.38595981852455,126.929074795622L102.37768403440117,127.1838205711556L102.87348239977021,127.90773335167978L102.80532582342835,127.94539849895409L103.0693542114322,128.65943306253575L103.06068079695076,129.08980923540366L102.65735061808905,129.08242182881622L102.33807052229976,129.70465745378897L102.32944881567234,130.04166963523676L102.07979534046224,130.064096198259L101.5691160770381,130.44680994552073L101.27793771543745,130.30840436708604L100.82265069291236,130.74432342387263L100.34092436435658,130.85273017250074L100.03865770183866,131.14675005332901L99.63135943183258,131.33854246171177L98.34816619763251,131.2514076570642L98.13800949109005,130.45514458533762L97.26535165965609,130.80733802784744L96.45641473353925,130.95316268147872L96.47628385889003,131.52467898107716L96.18642207862231,131.6156026420631L95.89938227881619,131.99637509183594L95.75795586185139,131.90760473755472L95.47132446953455,132.00382578282552L95.46379275425942,132.10552099908273L95.20623602189653,132.2808377501242L95.82491969723199,133.38934492436601L95.81667739534895,134.05671370940763L94.82867950971114,134.66506565583222L94.44042307312215,135.0930105557636L94.3506944848013,135.223132086654L94.37046157803994,135.94224112419033L94.16338797563375,136.32655721362244L93.94841242980266,136.3337965427054L93.85162136062252,136.52490569276597L93.91440942004395,136.59781664604634L93.85238410084825,137.17769404738465L93.16784305828513,137.47002260626687L92.81826357466235,137.16208155646018L92.53189876297775,137.29962440883355L92.56008776339763,137.57809424505103L92.87247601000527,137.8140921092854L93.18115912259098,137.89828598271197L91.73172219075221,138.94152932404722L91.33568670520268,139.08693875220342L89.62373333540539,140.31341418345255L88.82189602524316,140.25176751101753L88.87047416630317,140.5582263387587L88.75945924661069,140.58166819839425L88.629219887626,140.8318354572184L88.36306461599233,141.2922609600464L88.19409890767126,142.06738725483046L86.80808891193657,142.18165546585078L86.43301170769008,141.62866274003136L86.38587954924618,141.2397032177887L85.48144324537006,140.01931927359328L85.28412926795109,139.47724175190706L85.35843061601564,139.21795126812503L84.65198889088177,138.2300784075287L84.24867012296785,138.26752044203204L84.03906969140745,137.41278888115448L83.28596338009011,137.83073769180555L82.86529142795717,137.68517174393673L82.71093030902026,137.24966609572766L82.527207899838,137.4942984258396L82.43593552004573,137.43601001767274L82.27154918489107,137.73680090170456L81.67043465023885,137.438959531999L81.44831405605288,137.44007264411448L81.34256821852918,137.58116110620904L80.62655430003807,137.10763165764547L80.21034286040788,137.24487894053527L79.91980083503364,136.45754826532539L79.69629190487059,136.1723315479212L80.27296148046872,135.7084195183943L80.38230536359748,135.48480115200073L79.97684768897174,135.48345609610078L79.81793348520907,135.39624594835004L80.4235564368133,134.16852121010197L80.01677276660226,134.13348850630064L79.56967270994141,133.94142146488957L79.81657281092646,133.1234017198658L79.36053864758935,132.25032058212128L79.30378934205842,131.85938052368147L79.11229641443043,131.93840606706362L78.96432121388969,131.71713260662364L78.81495501386135,131.00163905948284L79.94986162537778,130.36094583869453L79.50512394548429,129.5213495014923L79.08712520664221,129.77126736783794L78.32433827034005,128.81871078465883L78.45614397854035,128.75989082450542L78.2871039847845,128.10896477420647L78.36790800677657,128.08803753836946L78.3703516066013,127.95343300341483L78.72766483667878,127.84915914506564L78.56046612305268,127.38127028576673L77.0741455166449,127.65010070379867L77.11059429918984,127.38748739621042L76.479167858621,127.46659089988134L76.20793774704234,126.37813519538759L76.09583911066491,126.39278571134491L76.02065867248004,126.1745034100004L74.45808487589004,124.73271694014147L73.98165470394896,124.34221165190502L73.39685309118367,123.801161442163L72.14817339887676,123.17359861157274L71.5488532437566,122.9337872638771L71.50215011391373,123.03274875354327L71.4121479634471,122.9922608757206L71.44386731501399,122.89415415774238L71.27838431603149,122.8435401148854L71.0150516547923,123.28465157280516L70.80242769658119,123.42606313810757L70.45325777303862,124.10690303299816L70.27312651163965,124.0189010829854L70.26540804763954,124.02238504811248L67.93714201019267,125.58533758673184L68.17634064567443,126.34540358369122L67.71076287138509,127.35205561810108L67.28792047990643,127.53028029887537L66.25459721034542,127.51798040222275L64.3661396953101,125.25120711442105L65.00322509703064,124.78633791527136L65.58514230876634,124.05350142310817L65.76152867114152,124.10798928320219L65.97086723117481,123.91071882597862L65.88077437948668,123.7851566719255L66.07524368781151,123.60956462435024L67.03681203793305,122.9144307322822L66.92768845251865,122.15034325945817L66.41559272587361,120.63572971310714L66.36555264341834,120.17949187797421L66.18667234633287,120.26424840095206L66.01019260111164,120.21188394579622L66.03507138741062,119.4607282402194L65.87313869433643,118.2499207172059L65.59210517515277,117.50471671507876L64.97876449596254,116.36367423008414L63.64983214322581,115.21047957113115L63.48860487416668,115.42344902061996L62.88669758153763,114.94242351628236L62.664473985952604,114.87090487614478L62.43210207563407,114.9296338121585L62.01245450945922,114.86072385920488L61.95725943862257,115.12466077359204L61.05251571301929,114.92588490066919L61.20678975931165,114.17114243030846L61.13224971011411,110.43296171415386L60.52337989987154,110.38680317061153L59.72707706405228,110.76881733784285L59.235895008300126,110.86309375195378L58.28467054202593,110.79567927675453L57.71462775495842,110.58112089292808L57.42376160414194,111.38031250128734L56.95380892484526,111.93594644534278L55.28084154215607,113.08010684290821L55.058960627912434,113.32974572920466L54.96671195094843,113.62808625298749L54.58181046743216,113.84661369180867L54.42705521434686,114.25742669174724L53.73394246539851,114.5921530014275L53.2357888783886,115.21389504155923L52.82974470013201,115.50331440653645L52.482831775434576,115.87774223511951L52.202406379320436,116.3492857316578L51.9350491073702,116.54884723340365L52.615766314917565,116.84503227998175L52.212632386835736,117.47078235125628L51.787373648114276,117.69664831425871L51.338137164280624,118.42910566606224L51.31363969133666,118.89186921771943L51.00300495690965,119.43184375608143L50.95074282818214,119.85442889632759L49.916220477240856,120.91428254994207L49.45812867489162,121.45629904604903L49.1627690822729,122.26539213998149L48.5863254883636,123.02996867857473L48.290850182655404,124.24492389062107L48.39462490797578,125.17394702067395L48.125422474987744,125.74073947185934L47.82341594263286,125.90302345117016L47.11795251619341,126.65806498231541L46.53032332438728,126.98976792426947L45.88196513378324,127.76204333719761L45.41117005085617,128.16684402453393L44.349671187829856,128.5890198410234L43.63669752947999,128.59964026633497L43.57830831653271,128.72439454989217L43.42588986853772,128.67531247413353L43.03783991783649,128.31633985689223L42.92299326554017,127.80842802454208L43.25533077739951,127.38201753012436L43.12722490116573,126.53035120601089L43.28447710520476,123.98866499845644L43.512550866142135,122.79348844427841L43.60314422419232,122.70371230929595L43.45500726813104,122.69206064686841L42.953872008975466,121.2008930662214L43.50399992687592,119.91885009715043L44.246849907339936,119.33811102414438L44.442257641781524,119.072803670133L45.138864756820695,117.56461611870327L45.55456054534827,116.0029913445178L45.50806407877762,115.15072688782675L45.63739347455861,113.90423713859491L45.724529928970355,113.18053293519915L45.897023558866834,112.77277235899055L46.39739366788007,112.27145778572594L46.75181224777131,112.23275717353863L47.59817294230491,111.99526736278676L47.64875780965966,111.85520196571633L47.76892635587147,111.00196482214233L47.87603490939955,110.99525181353602L47.676667114057054,110.41646217640846L47.63594013992807,110.273964269325L47.474476056167504,110.29198491426905L47.46295197685096,109.80974546447942L47.18647806586448,108.82128635351546L46.94049437491131,108.4733221806091L47.13587936313087,108.33656723177774L46.64895800215663,107.44613450291581L46.04871498548552,107.84386255279969L45.883085950285846,107.45545394327382L46.441497797149154,106.96296744552637L45.67888156343555,105.78723353361784L45.224829277697566,106.15315476152682L44.21312146066995,106.52498808107339L43.920148013193966,106.54463467385722L43.575845809322786,106.44236262854247L43.3451551864557,106.25013812295765L42.89554263760131,105.64283873999557L42.581361297848645,105.02022755224789L41.827839585677125,104.15494692392349L41.290140467383026,103.34115259644932L40.800860677460435,102.57410983346017L40.13074622104298,102.27198281091296L38.465475195777515,100.88790124494335L37.72306996157056,100.28559827226309L37.67034544226033,99.96340617191345L36.88631453765021,99.57847715038224L36.53623513657742,99.52064582986532L36.02321344062848,99.57016468722577L35.37002364058631,99.80359514096017L33.8863740770535,100.69733815392283L32.55138392348772,100.95832709458227L31.717308645827558,100.71820236558597L31.626416401882906,100.17935608679727L31.018554282913215,100.07946952271232L30.478141787977606,100.11078244233613L30.377573334901655,99.98347555198598L30.24088527664607,98.74084264030353L31.127639827291816,98.76039450401186L31.027374916481307,98.50766950435172L30.99172802920569,97.60997501366364L30.793525964254556,97.03922045297804L31.017234401375873,96.78257763003967L30.017630172994856,96.0168776242408L29.343553330631735,95.70580606757721L28.57785604352992,95.59730834665606L27.80216453839749,95.68061268944075L27.03620035157327,95.96442779136487L26.52280307496092,95.58982104253482L26.38123846247676,95.5023999192399L26.26103415980303,94.95111504739907L25.865087462825443,94.30609592441215L25.39348806076235,94.1311464066348L25.528187448135554,93.81508900484005L25.12418556034899,93.63977047235312L25.240362181877984,93.37390866847272L24.369663811072385,93.04892070903952L24.498577140791625,92.74528368557549L24.272725143870417,92.7627861593628L24.22433705880657,92.67983991279834L24.11909001279065,92.59474310717997L23.677772145611698,92.65882061968114L23.161907217262964,93.00349881918555L23.179106209657746,93.10018356333421L22.331258938490564,93.11995270619445L22.257715974245286,93.65452590227687L21.918881593819492,93.60583375355418L21.89555885088214,93.80960725145815L21.23516284182584,93.73439433760905L19.673484810013576,93.18568723673343L19.722602178193924,91.8235748254101L18.02885372950385,91.69271923183805L18.33259186492033,89.98921471737049L16.764928920671863,90.50173545900725L16.16633725515183,90.5936927443272L16.39683202577963,89.26493943919922L15.96034627622231,88.96486581351928L15.956561388519873,86.88631400121812L15.101673670375902,86.9198410037061L15.136069302197754,85.76001439296306L15.451156545412331,85.8117632819285L15.566890213768048,85.64941214975806L15.705920654474909,84.42080591767626L15.144847748067392,84.1137391175198L13.37797231247231,83.85135705650282L12.533128905181655,83.62958605130734L12.04046813537748,83.1340613898883L11.989091383635355,82.83649834080097L11.775953136294106,82.70713306728612L9.916965533197697,82.71484008971129L9.120045604369778,82.55408528005864L8.567221761950819,82.14886337297685L8.21586166234269,82.23400511763248L7.551524279783763,81.15765698248833L7.310775875947343,80.96822035815603L6.836191184007291,80.72977947134132L6.115804546253742,80.53297309442678L5.575146810141305,80.53081074532929L5.354389251810417,80.80226548643077L5.043024462018593,80.74157288786955L4.725000000000023,80.60155183263669L4.75119749378409,80.17047700965486L4.847408444753043,80.0312277198118L5.051925800480731,79.9715487651356L5.279223896511894,79.71003260011457L5.6468287981352745,78.9036957684857L6.167296129102496,76.15811859320092L6.4947458146672545,75.3597007491444L7.187066111497046,74.25950158828891L7.123877952148007,74.03924118341274L6.979454984521809,74.00187818939776L7.1180082491557926,73.65216831671569L7.087218461656022,73.4052323903743L7.2704315138793305,73.44830915468992L7.340500562575812,73.30233532122293L7.2019352806406545,73.17295386045043L7.467263287570461,72.96066266810703L7.622788563093067,72.97983385573207L7.599226753160423,72.75422681101918L7.7641136185422255,72.73520155825827L7.986108627514525,72.47072984216175L7.899619686923117,72.22170435711087L8.009891975786402,72.01297241038992L8.729886149302189,71.8742581689603L9.012257970382578,71.356712379491L9.031825020392787,71.29906476902033L9.112917247024228,71.05040842648123L9.31919999286879,70.88174444456126L9.337694607422435,70.6084423471475L9.150043928168074,70.3330199448028L9.28200776322393,69.99478352680308L9.12797997627689,69.97593042970766L9.091499520875232,69.85783227223874L9.303964051581701,69.43431600666008L9.57766247408044,69.38530298406658L9.61273746305119,69.17007167861811L9.852157259740594,69.19377262959642L9.836540358588493,68.88133416002529L10.068789949382705,68.61427429470314L10.172777376483126,68.28218642618958L10.066455332049955,68.16323828032728L10.090789149761648,67.7711153568107L10.175237257906701,67.58423094441969L10.329699547271403,67.58313635223385L10.385232882449642,67.29795042704973L10.4886024154017,67.23373500149864L10.48051380285196,67.03201954554424L10.317976998493393,66.90451868872333L10.416729549132256,66.7375859103613L9.926467444198451,66.15592470177216L9.986285302707387,66.07881497216113L9.082356189876364,65.5666266470489L9.053640885423391,64.9216796964356L9.13033014451588,64.69495547647057L8.781867659097912,64.29196223280996L8.541484207547683,63.669940663312445L8.690050812072599,63.04793999269532L8.958922723715233,62.61310707584926L8.787406762250654,62.23369763596202L8.925833908278591,61.82257699603906L8.982309525440101,61.1039364464923L8.854418330268473,60.540359080943745L9.254343849946821,59.72855958655782L9.10791109599485,59.23155835776015L9.012690493325039,58.55484918320326L8.784028875673854,58.13419613209044L8.934360414026486,57.83173316131979L8.780082711155401,57.77443716931339L8.697471629101969,57.571982946403296L8.328927220217096,57.25755799149556L7.869372480213556,56.37126189166702L8.274448879176745,55.49045500121065L8.652573158294004,55.29625935542208L8.590643205399985,54.99703958142163L8.817705392847728,54.27546150327362L8.867951101991622,54.09907858959741L8.701926885717043,53.999707932356614L8.748667400164123,53.74022450591474L9.170006496807034,53.66899117308458L9.14523316696517,53.36773978695783L9.430469844495647,53.29338747290967L9.666430262892305,52.53010417709811L10.0177437693294,52.168052994335085L10.264329207275352,51.916998706790764L10.596691719916109,51.89407570358708L11.401149348373295,50.76060027995118L11.63460669678598,50.75993308676516L11.731248658129644,50.61155298628728L11.88736010831063,49.66780270541676L11.804194354698879,49.12256377852282L11.691052299210497,48.897812934703325L11.073870208720095,48.71576767937222L10.942095632085781,48.7530112879067L11.003405522688041,48.38516664286726L10.569277748353159,48.02915032290548L10.68593845004807,47.65505584317725L10.478296519741562,47.23606148564795L10.614995038645006,47.03556140091496L10.150567986110616,46.64382550688788L10.310027638021268,45.16424985404592L10.087062056647326,44.78671987578673L9.986563054090439,44.259114981392486L10.197541549803276,44.10349951615717L10.314012091337759,43.843459176132455L10.259896302750008,43.744487636795384L10.06422463898663,43.73826891386307L9.521997543356747,43.43778086340171L9.204635928711639,42.917641833504604L9.15224097732137,42.7048495593117L9.344493701018806,42.28202450358913L9.12119565998185,41.5449978912402L8.816138323023793,41.18508776642375L8.03680415547899,40.5719451416353L7.949473950285238,40.295312939231735L7.985910301187246,39.91104849246949L7.815819315011353,39.37385589475889L7.503602736392125,38.955294736017095L7.354116845396405,38.40003124757459L7.160666150358622,38.3120182282255L7.20352648768278,38.0780459399557L7.0075025429277815,37.995520629579914L7.16908673586515,37.67595208507737L7.214596802360731,37.20777283100688L7.030615597133078,36.88138338216959L6.783424325659226,35.411882641339616L6.722668038782018,35.244696630141334L6.8394985480027515,34.87735223118398L7.100787031020602,34.833777011415805L7.412648442213481,35.004601237469615L7.614829202253304,34.83359097781249L7.694151551793084,34.48455832619038L7.51322448939105,34.20281260486445L7.492173453186197,33.62693531948207L7.214106623883097,32.46471381809897L7.0735692087868784,32.248740423779964L7.268147412114359,32.06060295271345L7.127890866088663,31.830772486136993L7.134304266229037,31.50264843338664L7.358116645321459,30.772814135207227L7.359675776179188,30.427014411945493L7.538841047951465,30.19788982238242L7.890642685542019,28.90641939379384L7.588819658799537,28.28543865694519L7.0674684628266675,28.076960072319707L6.877274943683361,27.74840697115178L6.90484438462309,27.197011364132777L7.262842878532936,26.81811990020833L7.413437470771143,26.171270643842945L6.861092042757619,25.492049314538235L6.917574258608752,25.31453928036899L7.067160277644618,24.866923935120212L7.539080555237291,24.449662302324214L7.732395911746167,24.447796365393515L7.859810354530438,24.63249687858115L8.154617167654138,24.670932246803204L8.282341346667536,24.84023671099385L8.709996996511961,24.76867583384046L9.243743482277551,25.85546909835648L9.492266890073694,26.140327128850913L11.867049015251027,27.805674294697383L13.466665521601243,29.542380319340737L15.467791120097715,30.805603452407013L16.026835506559422,31.09611732414669L16.406030342930023,30.95664046222373L17.78173214415996,30.05797567361151L18.48996358563798,28.585516262435704L18.9775180955734,28.627335989960557L19.54753182701657,28.431930047016067L20.03518494878017,28.48364147126631L21.215894679795056,29.022712085121384L22.137686189091667,29.22704046673607L22.54475600027915,29.482206055967254L23.731152727215445,29.50755184697482L24.642479328858244,29.68161527023949L25.627538843175373,30.4495535608894L25.836883665925157,30.583457532489774L27.315005777927396,30.791588044141463L27.328213838928548,30.791569244453058L28.290051223025017,30.715034925453438L29.733197636862414,30.107152167400272L31.18077958026619,29.8887580538958L31.456178081316565,29.76951361239844L31.998613450181622,29.339903188274548L33.31425612280394,29.077806651341234L34.94426457532654,28.233649830453942L35.505210234858126,28.000120218401207L35.95280814264012,27.58787707087322L36.13065535530983,27.245655898788755L36.30141448719513,27.179571153516008L36.750965626440475,26.65463227908367L38.97456533178898,26.090290645204732L39.8498556629776,25.603393878920542L40.95920152148197,24.783599546066398L41.300695700139485,25.212204245195608L42.40539357296521,23.87202818856349L42.430424535703736,23.717321822699887L42.54005835132709,23.72044615336199L43.06595064733119,23.203481007181836L43.796800160696364,22.729427649268473L45.23301282173223,22.21494614461517L45.60082738208324,21.628431170394833L45.89662717344599,21.42172140344337L46.82251686775642,21.961111905095095L48.29869304540861,22.596210138104652L48.493984498785636,22.855563822538898L48.68816552214747,22.817563315349616L48.86320801656632,22.929170258801605L48.929171655143506,22.8542949364346L49.473322411371264,23.05739250107581L50.03579668312503,23.066519422240162L50.26582721929657,23.165252563958347L50.636832677587,23.095671956116348L51.171718594630185,22.81179710282595L52.039545072907565,22.800118705023124L52.52583607135974,22.650715454870806L52.871606252864865,22.36059388006106L53.39971719316544,22.171834007804136L53.99052826972634,22.179616227551378L54.445159728507974,21.99285165591391L55.03244015464892,22.059442971045428L54.93398434436067,21.842343274181985L55.158211597356626,21.195939213501333L55.21255136122696,20.88568796351865L55.81425523652178,20.889792173242313L56.195032588515566,20.787285234917363L56.173871941824295,20.291261856686106L56.50961155676571,20.196316998295515L56.840528427950765,20.227304293599445L57.021758126109134,20.361973573270006L57.25286080089522,19.948680765788595L57.60749030931122,20.23695425052938L57.79716155714545,20.688930582864486L58.29262207230384,20.9217114753028L58.51597625368393,20.977280177303328L58.762799373827555,20.408472382909167L58.91450990916607,20.478358610718715L59.215033672028426,20.17215351050436L59.744131876630384,18.879698161053966L60.10578445987373,16.596183685727738L59.906927245527044,16.52945205349897L59.80929319244968,16.279281977491337L59.95127018812121,16.101750251867998L60.21383656957014,16.101584172645744L60.52909511103481,16.379185407904515L61.43099504970309,15.885204749207332L61.91148698799385,15.708452991795639L61.99054117332577,15.83489631588236L62.37212984141549,15.641590717106737L62.63330390446804,15.50795603397819L62.56853735641546,15.350101213773087L62.908319527824645,15.169971999755944L63.32742084759171,15.092573915882895L63.42946590674771,15.349057768229613L64.55831462852093,14.758381011424717L64.64985923737872,14.76183996519103L64.7414644439287,15.232946765770976L65.08072409211387,15.723013720084055L65.16974298397636,15.563962394056944L66.4974423242842,14.523571945686854L66.61513770658676,14.475890540112232L66.6901575902993,14.728971376114714L67.86011806222004,13.9348112891239L68.12767229216728,14.2860417490283L69.03603350535734,13.7691628911125L68.34062958465971,12.365604608196008L68.61604070659706,12.157159972894078L69.01569867647984,12.489185316593648L69.51014331291236,11.801146412870366L70.23415161167352,12.073988750164062L70.15367363843089,11.556468408602086L69.99535350072274,11.278138347935965L70.73568161267407,11.26311586531665L70.91994714521559,11.936456514704332L71.42840930832693,11.957053317839382L71.52513740629368,11.82563206440318L71.80310042872733,11.902509781815752L71.4175938725972,12.870652914290986L72.29673245073946,13.121825445221475L72.60809296088485,13.414120457175159L73.30486907005138,12.0486407301305L73.72723804706206,11.83253069420607L74.51810485827534,11.800140247722084L75.66093322304062,10.601484951906968L75.59822269114025,10.402564348121814L75.73017854213973,10.414501788145571L75.93118563786658,10.43248703154859L75.88500717999875,10.236752534277912L75.954811249049,10.13859020840573L76.03370061203327,10.218892042199514L76.56227287364253,10.261440445417975L78.4478013446304,7.067921145866421L78.46978329397044,5.8606208098899515L78.47203595688524,5.10865152632141L79.64194871800699,5.40841599552914L80.64865370394116,5.883027403124288L81.47546137199166,5.999328805435653L82.47751529262071,5.719149385962737L83.55615275434229,5.175089303764253L84.45081356967911,4.8990650283067225L85.54165225887033,4.83387719237362L87.25708639454086,4.960690612399048L88.09403644990331,4.826208872713323L89.23188235517972,4.179772450503151L89.92859625500449,3.949509788717478L89.90128458342008,3.8871020898277493L90.74553887972316,3.818344534151038Z" /></svg>
