<svg viewBox="0 0 519.5 635.3">
<style type="text/css">
      .cls-1{
      fill:#3c7a9f;
      stroke:#fff;
      stroke-width:2px;
      stroke-miterlimit:10;
      }

#london:hover {
  fill: #1E3D50;
  cursor: pointer;}

#south-east:hover {
  fill: #1E3D50;
  cursor: pointer;}

#south-west:hover {
  fill: #1E3D50;
  cursor: pointer;}

#east-england:hover {
  fill: #1E3D50;
  cursor: pointer;}

#east-midlands:hover {
  fill: #1E3D50;
  cursor: pointer;}

#west-midlands:hover {
  fill: #1E3D50;
  cursor: pointer;}

#yorkshire-and-humber:hover {
  fill: #1E3D50;
  cursor: pointer;}

#north-east:hover {
  fill: #1E3D50;
  cursor: pointer;}

#north-west:hover {
  fill: #1E3D50;
  cursor: pointer;}
</style>
<title>England_Regions_within_UK-01-01</title>
<a href="E12000009">
	<path id="south-west" class="cls-1" d="M283.5,404.4l-1.4,0.7l-1.6,3l-0.4-0.8l-0.8,1.4l-1-0.7l-0.5,0.8l-1.4,0.2l0.8,0.8v1.1
		l1.9,1.1l0.6,1.4l-0.9,2.6l-1.5-0.6l-3.5-3.5l-1.2,1.6l-1.3-0.8l-2.2,0.2l-3.7,3.4l-0.8,0.1l-0.8-1.2l-1.7,0.4l-1.8-0.5l-2.1,1.7
		l-0.6-0.8l0.8-2.3l1.6-1.1l-1.2-0.9l-1.9-0.5l-0.6,0.3l-0.7,0.6l0.2,2.2l-0.7,0.3l1.6,2.5l-1.1-0.3l-0.3,1l-2.4-0.6l-2.1,3.2
		l-1.3-0.2l-2,0.2l-0.8-1h-0.9V416l-1.8-0.8l0.1-0.8l-2.9,1L241,417l-1,0.2l-1.6-0.3l0.2-1.8l-1.9-0.2l-0.2-1l-0.9,0.1l-0.9,1.3
		l1.4,1.8l-1.6,1.5l0.2,1.9l-0.6,0.4l2.4,1l-0.1,2.6l1.2,1l0.5,2.4l-1.8,0.4l-1.5,1.3l-1.4-0.5l-1.6,2.6l-3.3-0.1l-0.2,1.3l-1.2-0.8
		l-1.7,1.9l-0.8-0.5l-0.9,1.8l-0.8,0.4l0.1,1.3L222,438l0.5,1l-0.8,2.8l1.2,1.7l-0.7,1.9l-1,0.6l1.3,2.8l-1,0.5l0.9,0.7l-0.2,1.5
		l1.1,0.8l-1.8,0.5l-0.2,0.7l1.3-0.2l-0.9,1.9l0.7,0.2l0.2,1.6l0.6,0.9l-0.6,1.2l2.7,0.6l-2.4,3.4l-0.8,3.2l-3.1,3.9l1.3,1.8
		l-2.1-1.2L218,472l-2.8-0.3l-1.8,1l-5.5,5.8l-0.5,2.1l-2.2,1.8l-1.5,0.5l0.2-0.8l-3,1l1.2,0.6l0.1,0.9l-0.3,1.2l-1.9,0.8l0.8,0.8
		l-0.2,4.1l-0.6-1l-2.8-0.9l1.7,1l-0.8,5.9l1.3,2.3l0.2,2.2l0,0l-1.2,1.8l-0.8,1.8l-1.7,0.6l1.5-1.2l0.8-2.2l-0.7-0.1l-1.6,1.7
		l-1.7,0.2l-3.8-1.1l-3.3,1.2l-1.5-0.2l-5.2,2.3l-8.8-0.4l-2.7-2.8l-1.8-0.1l-1.8-1.8l-3.2-1l-2.4-0.1l-2.9,1.7l-0.7-0.8l-6.2-1.2
		l-3.3-0.6l-1.2-0.9l-1.8,1.6l-2.5-0.5l-2.9,1.2l-2.3-0.9l-2.2,1.3l-4.8,0.2l-0.7,1l-3.3-1.2l-0.7,0.7l-1.7-0.2l-3.9,1.5l-1.6-0.4
		l-0.8,1.2l-1.3,0.2l1.3,1.1l-0.4,2.9l-0.4,0.8l-2.7,0.1l1.6,1.1l-0.2,1.4l1.2,0.3l0.4,4.6l1.7,1.2l0.7-0.2v1.9l-1.3,1.6l0.5-2.3
		l-1.3,0.2l0.2-1l-0.7-0.4l-1.4,2.6l-1.4,0.3l-3.1,4.2l-2.7,0.9l-2.4-0.2l-3.4-2.7l-3.1-1l-3.8-0.2l-0.7,1.4v4.8l-1.4,2.8l0.3,1.2
		l-0.6,0.2l-1.1,2.4l0.6,7.3l0.7,0.8l-0.8,0.1l-0.4,5.1l-5,3.3l-0.2,0.9l-1.3,0.1l-0.2,2.5l-1.9,1.2v0.9l-3.2,1.2l-0.7,1.4l-0.5-0.6
		l-1.5,0.7l-0.2,1.7l0.5,0.2l-0.9,3.3l-1.8,2.6l-2.6,0.5l-1.2-0.8l-1.4,0.3l0.2,0.7l-1.3,0.7l-1.6-0.3l-0.7-1.2l-1.2,0.8l1.3,1.2
		l-1.2,1.2l0.2,2.2l-0.6-0.5l-1-0.8l0.1-1.4l-2.5,2.8l-3.7-0.9l-0.2,0.4l1.1,0.8l-0.5,2.6l0.6,0.7l-0.8-0.1l-1.1,1.2l0.8,0.4
		l-0.2,1.6l-0.6,3.8l-1,1.8l-0.8,0.1l0.8,0.2l-2.1,1l-1.1-1.2l-0.2,1.3l-1.7,0.1l1.2,0.4l-1.2,0.5l-0.6-0.5l-0.1,0.8l-0.8-0.4
		l0.2,1.8l-0.9-0.1l0.6,1.6l-0.7,3.2l-1.9,0.5l-1.5,2.2l-2.4,0.1l-0.1,2l-1.2,2H40l-1.6,0.8l-0.9,1.4l-0.9-0.2l-2.4,2.3l-2.6,0.1
		l-0.4-0.7l-1.2,0.3l-0.2,2l-2.8,3.1l-0.1-0.2l-2.2-0.8l-0.4-2.1l-0.7,0.4l-0.9-0.6l-2.8,0.2l-3.8,2.8l-0.6-0.6l-2.2,2.7h-3.1
		l-2.8,4.2l1.3,4.1l-2.1,2.2l0.3,1.2l1.2,0.5l0.5,1.8l0.8,0.4l1.8-1l0.8,0.5l1.3-1.2l2.9,0.1l1.1-1.2l0.6,0.3l1.7-3.1l-1.1-2
		l1.3-0.8l0.6-1.3l4.2,0.5l2.3,2.1l-0.1,0.9l1-0.3l-0.2-0.4l2.4,0.3l1.4,1.4l1.7-0.2l1.2,1.2l0.3-0.3l2.5,3.2l-0.2,1.4l1.4,1.2
		L38,627l0.7,0.9l-0.8,2.3l0.8,0.5l0.5,2.3l1.8,0.5l0.2,1.2l2.2-0.3v-1.8l1.8-2.8l2.8-0.2l1.4,0.6l0.8-1.2l-0.3-1.2L52,627l0.9-1.9
		l-0.7-1.7l-0.8-0.2l0.3-1.8l-2.6-0.4l-0.5-0.8l-1.1,0.5l-0.3-0.6l-0.8,0.2l0.2,1l-0.5-0.9l-1.8,0.7l-1.9-0.5l3.4-0.2l-0.7-0.7
		l0.5-1.4v1.8l1.3-0.2l0.5-1.3l0.5,0.2l-0.8,1.1l2-0.3l0.8,0.5l1.3-1l-1-2.2l2.1-1.6l1-0.4l0.8,0.5l1.3-2.2l0.4,1.8l0.6,1l2-1.3
		l0.8-3.7l1.2-1.8l1.7-0.4l1,1.2l4.1-4.1l3.2,0.7l0.8,1.3l0.4-1.2l1.2-0.8l-0.3-0.9l1.3-0.8l-1.2-0.9V602l0.7-0.9l-0.2-1.2l1.2-1.1
		l0.8,0.2l-0.9-2.4l0.8-1.1l2.1-0.6v-0.1l1.4-0.2l0.1-0.9l0.7,0.1l0.9,1.1l-0.3,2l0.8,0.7l0.4-1h1l1.6-1.6l0.1,0.4l0.5,0.1l-1.1,0.4
		l0.3,0.6l1.8-0.4l0.6,0.5l1.4-0.9l2.8,1.1l2.6-0.7l0.3-0.8l1.7,0.6l1.7-1.6l-0.9-1.2l0.3-0.8l0.6,1.6l1-1.1l3.5-0.4l7.2,1.1l3.9,3
		v2.2l1-0.7l1.6,0.1l-0.8-1.7l2.2-1v-1.8l-2.7,1.2l0.8-1.3l-0.6-0.5l0.8-0.9l-0.2-1.1l-0.8-0.3l0.5-0.3l-2.2-0.4l0.5-0.2l1.5-1.5
		l-0.7-0.8l0.4-1.2h-0.9l1.7-1l0.1-1.1l0.9,1.3l1.1,1.2l0.4-0.5l0.6-0.9l-0.6,0.9l-0.4,0.6l0.2,0.2l-1.9-0.5l-0.9,2.7l0.8,0.8
		l0.8,1.7l-0.2,0.6l-0.1,0.5l1.2,0.4v0.5l1-0.7l1.3,0.3l0.2-0.8l1.1,0.9l1.2-2.3l1.2-0.3l-1.8,2.2l-0.2,0.9l0.8,0.3l-2.3-0.6
		l0.6,1.7l0.4,2.8l6,0.8l-2.9,0.6l1.6,1.5h2.1l0.5-0.9l1.5-0.5l2.2,0.4l1-0.8l-0.2,0.8l0.3,1l1.4-0.1l1.9,1.7l1,0.1l-0.1,0.8
		l1.6,1.5l-0.1,2h-0.9l3.4,2.8l2.2,0.8l0.7-0.6l-0.1-1.5l1.5-0.7l-0.6,1.6l2.2,0.8l1.1,1.4l2.9-2.1l1.7,0.5l1.2-0.4l-1.3-1.6
		l1.5-6.2l2.1-2.8l2.3-0.8l1.1-1.1L158,596l1.9,1.5l1.8-1.2l-0.2-1.3l1-2.2l0.8-0.2l-0.5-0.8l1.5-1.2l-2.2-0.7l0.5,0.7l-0.4,0.4
		l-0.6-0.8l-2.4-0.5l-0.1-3.9l1.6-2.2l1.3,1l2.5-1l-2.4-2.1l0.5-3.8l1-2.3l-1-0.5l1,0.1l1.9-2.3l0.3-2l2.9-3.2l-1.4,1l-0.4-5
		l-1.2-1.8v-1.9h0.1l0.8,0.8l0.5-1l0.1,0.6l-0.1,0.7l2.2,4.8l-0.8,1.2l4.5,1.4l0.9-1.5l3.4-1.2l1.8-3.3l1.5-1.2l5-1.2h6.1l1.2-1.8
		l4.4,0.4l4.4-1.6l0.4-0.4l2.6-1.7l10.3,2.6l9.2,5.7l8.6,6.9l-7.5-6.3l3.6,1.6l0.2,0.9h0.9l-0.2,0.7l2.2,0.8l2.1,2.9v0l1.1,0.8
		l1.5-1.9l1.2,0.5l-1.3-0.8l0.7-0.7l-0.8-0.3l0.7-1.3l1.1-1.1l1.1,0.2l5,0.2l1,0.8l6.1,1l2.7-0.8l0.8,0.9l2-0.1l0.8,0.8l0.8-0.4
		l1.4,1.4l3.6,0.7l0.6,1.8l2-1.4l5.2-0.6l0.5-1.4l-0.8-0.2v-0.9l2.2-2.7l-1.8-0.4l0.5-3.1l-0.5-0.7l-1.7,1.7l-0.8-0.5l0.5-0.8
		l-1.2,1.1l-0.2-1.1l-0.4-0.2l-0.5-0.5l-0.8,0.1l-0.3,0.4l0.1-0.8l-1.5,1.1l-0.4-0.4l2-1l-0.6-1.6l1,0.1l-0.6-0.7l-1.9,0.8l-0.8,1.5
		l-1.1-0.1l0.7-1.9l1-0.1l-1-0.2l0.6-0.9l1.5,0.2v-1.3l-0.4,0.4l-0.3-0.6l1.9-0.1l-1,1.2l3.7,1.2l-1.7-2v-0.8l1-0.5l0.8,2l-0.5,0.8
		l2.3-0.3l0.8,0.7l-0.3,0.5l1.3,0.7l-0.9,1.8l3.2-2.9l4-1.1l0.9-0.2l5.7,1l0.6-1.1l0.1-0.4l2-1.3l1.2-0.1l0.8-1.6l-4.3,0.4l0.3-1.8
		l-0.7-1.7l-2.6,1.6l-0.1-1.5l-1.2-1.5l0.2-0.5l-0.7-1.3l0.6-0.6v-1.8l0.9-0.7l-0.8-0.7l-0.4-2.4l-1.5,1l-1.4-0.3l-0.2-0.8l0.7-2.2
		l-0.3-0.3l0,0l0.4-0.8l1.2,0.2l0.6-0.9l0.4-2.6l-2.2-0.5l-2.2,1.6l-3.2-4.8l-2.4-1.8l-0.1-1.2l0.5,0.8l1.5-1.7l2.8-0.2l0.8-0.8v2.4
		l1.4-2.2l1.2-0.6l1.4,2.6l1-0.6l3.2,1.5l2.4,0.1l2.1,2.4l0.9,0.5l1,0.5l1.9-1.5l0.8,0.5l0.2-0.5l1.1-2.2l-1.1-0.5l-0.7-1.8l1.6-0.3
		l-0.6-0.5l0.4-0.3l0.8,0.2l-0.5-1l0.4-0.7l-2.3-1l-0.2-0.9l0.4-4l-0.6-1.6l0.8-2.8l-2.5-1.2l0.6-3.1l-0.2-0.4l-1.1-2.1l0.2-1.3
		l-1.8-1.4l0.3-1.2l3.8-0.3l1.8-3.9l2.1-0.3l2.2,1.2l0.7-0.4l0.4-1.3h-0.7l-0.2-2.2l1.4-0.7l0.2-1l-1-2.2l0.4-2.4l2,1l0.8-2l-1-1
		l0.3-1.4l-1.2-0.2l-2.9-2.6l0.2-1.6l-0.7,0.2l-0.6-0.8l0.4-0.8l2.6-0.2l0.2-2.5l-2.4-2.3l-1.7-2.9l-0.1-3.2l-1.2,0.8l-3.1-5.8
		l-0.5-0.5l-1.5,0.8l-1-1.5l0.1-0.1v-2.3l1.6-1.2l-0.4-0.7l0.9-1.4l-2.2-2l-0.5-2l1-1.8l1.7,0.9l0.9-0.4l-0.6-1.3l-1.9-1.5l-0.7-1.4
		l0.6-1.8l-1-3.3l-1.2-1.3l2.5-2.3l0.3-1.4l-0.6-1.9l0.7-1.7l-0.8-1.6l1.3-1.3l0.6-2.2l1.8-0.3l-0.8-2.5l2-1.7l-1.2-1.9l-1.6-0.2
		l-0.5-0.7l-0.2-2.6l-0.2-0.6l3.5-4l-0.4-1l-2.7,0.8l-2.1-0.9l0.4-1.3l-1.1-0.8l0.2-1.5l-0.8,0.7l-1.2-0.8l0.2-2.9l-0.7,0.9
		l-0.8-0.4L283.5,404.4z M267.2,560.6h0.1v-0.1l-0.1-0.1L267.2,560.6L267.2,560.6z M283.9,555.4l0.4,0.8l0.5-0.8l1,0.8v0.2l-0.2,0.6
		l-1.2-0.3L283.9,555.4z M269.7,559.1l-0.9,0.5l1.4,0.7l0.8-0.5L269.7,559.1z M266.4,559.4l0.2,1l0.4-0.3L266.4,559.4z M261.7,560
		l-0.6,0.9l0,0L261.7,560L261.7,560z M233,569.9l3.7,4.1l-0.7,5.1l2-2.4l1-1.5l-0.9-1.9l0.4-0.3l-2.6-0.2L233,569.9z"/>
</a>
<a href="E12000005">
	<path id="west-midlands" class="cls-1" d="M270.4,282.6l-1.7,1.4l-0.8,2.2l-1.2,0.5l-1.8-0.4l-0.8,1.8l-1.3,0.6l-2.3,0.2l-1.9-2
		l0.1,3.4l-1-0.3l-3.7,4.8l-2.3,2.8l-0.4-0.4l-1.8,1.5l-0.9,0.2l-1.4-0.3l-2.1,2.7l-2.3,0.8l-0.1,2.5l0.9,1.2l-0.8,0.8l0.3,1
		l-3.9,1.2l0.2,1.9l-3.1,1.1l-2.7-1.7L233,313l-2-1.9l-1.7,1l-0.7-0.8l0.2-1.8l-0.8,0.1l-0.1-1l-0.9,0.2l-0.7-1.1l-2.8,1.2l-1.6-1.1
		l-1.8,1.2l-0.5,1.5l0.8,1.5l-0.4,3.4l-1.8,0.1l-3,3.1l-2.6-5.2l-2.8-0.4l-0.2-0.7l-2.8,1.4l-2.1-1.4l-0.9-1.9l-0.5,1.1l-1.8,0.5
		l-1.8,2.8L197,315l-1.3-0.6l-0.9,1.3l-0.3,2.7l-2,0.1l0.6,0.9l-1.2,0.6l1.7,1.3l-2.4,2.1l0.8,0.6l-1.2,2.5l-0.1,1.3h0.1l0.9,0.1
		l-0.5,1.2l2.8,1.4l2.1-1.3l-0.2,2l0.9,0.8l0.4-0.5l0.3,0.6l0.4-0.5l0.7,0.8l0.5-0.3l0.2,0.7l1.2-0.4l0.4,1.1l-0.8,0.7l1.9,0.9
		l-0.3,0.8l0.7,0.3l0.8-0.2l0.6,0.4l0.2,1.8l-1.2,0.1v-1.2l-1.5,0.7l-1.3-0.5l-0.1,2l-1.6,1.7v1.8h0.5l-0.4,1l-0.5,2l-2.1,0.7
		l1.5,1.2l-0.9,0.2l-1.4,2.1l0.3,1.1l-1.9,1.4h-1.5l1.8,4.8l-1.7,0.8l0.3,0.8l3.1-0.8l0.3-0.5l-0.9-0.7l0.5-0.7l1.8-0.5l1.6-1.7
		l1.4-0.4l1.3,2.4l-0.5,3.4l-2.1-0.2l0.2,2.4l-5.5,0.2l-4.6,2.7l-1.2-0.2l-2.3,2.5l-0.2,1.2l1,2.3l2.7,1.3l1.6,2.4l3,1.2l3.3,3.2
		l1.3,0.4l4.4-1.1l1.3,0.6v0.1l-0.8,2.1l-2.3,0.8l-0.9,4.6l4.2,1.2l-1.8,1.1l-1.9-0.6l-2.1,0.8l-0.8,0.7l0.2,1.3l-1.9,0.2v2.5
		l-2,1.1l0.5,2.1l-1.9,2.2l1.5,1l1-0.9l0.8,0.8l-1.4,1.2l-2.9,0.6l-0.4,1.1l2.5,1.2l-0.1,1.2l-1.2,0.2l-0.2,2.7l2.3,3.1l0.3,1.1
		l-0.9,1.9l2.1,4.3l2.8,2.9l1.1,3.3h2.2l0.3,2.5l1.3-0.1l5.1-2.9l2.2,1.3l-1.2,0.8l1.4-0.3l0.4,1.2l1,0.1l1.3,1.7l2.2,1.1l-0.7,1.6
		l2.7,3.2l1.3-1.3l0.4,1l1.2-0.6l0.2,1.2l1.8-0.2l1.1,1.1l0.9-1.8l0.8,0.5l1.7-1.9l1.2,0.8l0.2-1.3l3.3,0.1l1.6-2.6l1.4,0.5l1.5-1.3
		l1.8-0.4l-0.5-2.4l-1.2-1l0.1-2.6l-2.4-1l0.6-0.4l-0.2-1.8l1.6-1.5l-1.4-1.8l0.9-1.3l0.9-0.1l0.2,1l1.9,0.2l-0.2,1.8l1.6,0.3l1-0.2
		l0.3-1.7l2.9-1l-0.1,0.8l1.8,0.8v3.2h0.9l0.8,1l2-0.2l1.3,0.2l2.1-3.2l2.4,0.6l0.3-1l1.1,0.3l-1.6-2.5l0.8-0.3l-0.2-2.2l0.7-0.6
		l0.6-0.3l1.9,0.5l1.2,0.9l-1.6,1.2L258,416l0.6,0.8l2.1-1.7l1.8,0.5l1.7-0.4l0.8,1.2l0.8-0.1l3.7-3.4l2.2-0.2l1.3,0.8l1.2-1.6
		l3.5,3.5l1.5,0.6l1-2.7l-0.7-1.4l-1.9-1.1v-1.1l-0.8-0.7l1.4-0.2l0.5-0.8l1,0.8l0.8-1.4l0.4,0.8l1.6-3l1.4-0.7l1.2,1.9l0.8,0.4
		l0.7-0.9l-0.2,2.9l1.2,0.8l0.8-0.7l-0.2,1.5l1.1,0.8l-0.4,1.3l2.1,0.9l2.7-0.8l0.4,1l-3.5,4l0.2,0.6l3.7,3.5l1.4-1.7l-0.6-0.7
		l1.3,0.4l2-0.9l-0.5-1.2l1.1-0.5l0.9,0.5l0.3-0.6l1.7-6.8l-0.3-1.4l1.6-3.2l2.1,0.4l-0.5-1.7l1.9-0.6l2.7,2.6l1.9-0.8l-0.9-1.8
		l-1.5-0.2l1.8-1.9l1.2,0.1l1.2-3.7l1.1-2.4l2.2-0.2l1.8-0.8l-0.5-1.8l-0.9-0.7l-0.7-1.8l1.2,0.3l0.8-1.3l1.5-0.7l1.1-1.5l-0.5-2.2
		l-0.7-0.4l1.6-2.7l-4-1.4l0.2-0.7l2.7-1.8l3.1-0.8l0.2-0.5l-2.1-3.9l-2.4-4.2l-0.2-0.4l-4.4-5.8l-1.3-0.8l-6.2-3.6l-2.8-1.9l-4.2-2
		l-0.3-1.3l-2.2-1.5l0.4-2l-0.8-0.7l-0.3-1.6l1.6-0.8l0.3-1.2l-0.7-1.7l-2.5-2l0.2-0.8l-0.7-0.7l-0.4,0.4l-2.1-0.7l-1.3,0.4
		l-0.2-2.5l-3.3-1l1-1.4l-0.3-0.9l2.1-3.6l1.1,0.6l0.8-0.8l0.8,0.8l0.5-0.6l0.5,0.4l-0.2-0.8l1.7-1.3l-0.2-1l-1.2-0.7l1.6-1.8
		l-2.7-2.5l-4.2-1.1l-0.8,0.3l-0.1-0.6l-1.4,0.8l-1.3-0.9l-2.1-1.7l-0.7,0.4l-0.9-0.7l-0.6,0.6l-1.4-0.7l0.2-1.1l-1.7-2.6v-1.2
		l1.6-1.6l0.2-3.5l4.2-2.4l0.3-3.4l-1.4-1.5l-0.4-0.6l0.6-1l-0.7-0.4l-0.5-2.8l0.7-0.5v-1l-2.5-3.6l0.3-2.5l-3.8-4l-1.9-0.3
		l-3.5-1.7l-0.3-1.4L270.4,282.6z"/>
</a>
<a href="E12000002">
	<path id="north-west" class="cls-1" d="M224.8,67.8l-0.8,1.7l-1.9,0.7l-3.3,2.8l-2.6,0.3l-0.1,1.4l-0.9,0.4l-0.7,1.5l-2.2,1.5
		l-0.7,1.8h-1.2l-1.6,1l0.2,1.1l-1.4,1.1l-5.8-0.5l-0.2,0.6l1.7,1.2l-1.6,2.9l0.3,1.2l-0.8,0.8v0.9l-1.4,1.3l-1.7-0.1l0.6,0.6
		l-1.3,0.6l0.8,0.7l-0.7,0.1l0.3,0.5l-1.5,0.2l0.2,1l0.8,0.1l-0.9,0.3l3.6-0.3l-2.8,1.1l-2.3-0.6l-1.9-2l-2.9-0.4l-1,0.9l-2.4,0.3
		l-1.8,2.4l0.2,0.8l2.2,1l1.3-0.8l0.3,1l-0.9,1.2l-1.5-0.2l0.3,1.9l-3.6-2.4l0,0v-0.4l-1.8,0.9l-2,2.4l-2.6,7.3l-0.2,4.9l-4.4,4.2
		h-0.2l-0.7,2.7l-3.4,4.5l-0.5-0.1l0.8,4.4l-0.5,1.3l-2.8,8.2l-1.6,0.8l0.2,1.2l0.9,1.8l1.7,1l5.2,7.4l4.6,8l0.8,0.4v6l6.4,10.6
		l1.2,0.1l0.8-0.9l2.1,0.6l1-1.2l-0.8-1.4l1.2-1.3l-0.3-0.5l0.9-1.6l-0.4-0.3l0.6-0.1l-0.4-0.9l0.9,0.3l1,3.1l0.6-0.6l-1.1,1.8
		l-0.7,3.4l-0.5-0.2l0.3,1.2l-2.6,1l0.5,1.4h0.8l-0.4,5l1.3,2.2l1.7-1.6l1.3,2.3l-0.3,0.9l0.4-0.5l1.3,1.7l-1.4-1.9l2-1.7l2.5-2.4
		l1.8-3.7l1.1-0.8v-2l0.3-1.7l1.6-1.7l-0.4,1.5l1.8,2.2l0.3-0.3l-0.1,0.9l0.9-0.1l-0.6,0.7l0.3,1.6l-0.2-0.1v1.4l-0.6-0.1l-0.8,1.4
		l1.4-0.2l2-1.8l1.5-1.7l0.8,1.1l-0.2-1.8l1.9-3l4.1-1.2l-1.4,1.5l0.4,1.4l-0.8,0.2l0.4,2.3l1.7,0.5l0.9,3l1.1,0.1v-0.9l0.8,0.2
		l-1.1,2.3l-1.2,0.9l-0.1,1.1l0.6,0.1l-1.8,1.2l-2,0.3l-1.8,3.8l-1.2,0.9l1.3,1.2l0.3,3.2l0.9-0.4l0.2,0.6l0.3-1.9l1,0.3l0.5-0.1
		l1.5,1l-1.8-0.4l-1.5,2.2l0.5,1l1.7,0.5l-0.8,0.5l-0.2-0.4l-0.7,0.9l-1-0.2l1,0.8l-0.8,0.5l0.4,0.7l-0.6,0.5l0.2-1l-0.8-0.1
		l0.5,0.5l-1.2,0.3l-1-0.8l0.4-0.6l-5.3,2.2l-0.2,2.5l0.4-0.3l0.3,0.8l-0.7-0.2l0.1,0.8l1,1.9l-1.9-2.2l0.1-2.9l-2.8,0.8l-0.7,11.1
		l-0.1,4.7l0.5,2.1l2.2,2.1l2.7,0.6l2.3-0.6l-0.8,0.7l3.3,0.1l2.7-0.5l4.2-1.5l-4.5,1.9l-3.3,0.8l-0.9,0.1l0.2,0.5l-0.8-0.5
		l-0.7,1.4l0.8,0.8l-1.3-0.1l0.5,0.7l-0.6,0.2l-1,0.5l0.1-0.6l-4.8,6.7l-2.9,5.3l-0.8,1.4l-0.5,3l1.8,2.6l0.9-0.1l0.3-0.8l-0.5,2.8
		l1.8,4.8l1.8,2.6l1.4,5.7l3.5,2.8l3.4,3l2.8,0.8l0.7-0.5l-0.4-0.7l3.1,1.6l0.5-0.8v-0.2l1.2-1.8l-0.3-0.6l2,0.9l0.4-0.8l2.3-0.8
		l1.2,0.5l0.8-1.2l-0.8,1.5l-1.6-0.3l-1.3,1.2l-0.2,0.1l-2,0.1l-0.7,1.3l0.7,1.8l-2.5,1.9l-2.7-1.2l-1.1,0.2l0.5,0.8l-1,0.5l0.6,0.3
		h-2l-3.4-2l-4.3-6.5l-1.1-3.8l-1.7-4.5l-7.1,3.5l-3.4,2.4l0.8,2.5l3.1,3.4l0.3-0.2l2.4,3.4l-0.6,1.8l0.7,0.4l0.5-0.5l0.2,1l1,0.5
		l-1.5-0.3l0.6,0.8l-0.6,0.8l-0.6-0.7l0.4,1.1l4.4,1.3l5,4.2l1.7,2.4l0.1,1.3l-1.5,1.3l-3.2,0.9l1.8,2.6l1.3,1.2l2.7,1.1l1.5-1
		l-0.5,1.8l-0.9,1.4l1.7,1.2l-0.4,0.8l1.3,1.5l-0.7,0.3l0.8,0.4l-0.8,0.9l0.9,0.9l-0.3,1.5l1.1,0.6l0.5,2.2l2.2,0.8l0.9-0.7l1.5,0.1
		l0.4,1l2.2,0.2l1.8-1.2l1.7,1.1l2.8-1.2l0.7,1.1l0.9-0.2l0.1,1l0.8-0.1l-0.2,1.8l0.7,0.8l1.7-1l2,1.9l0.6-2.9l2.7,1.7l3.1-1.1
		l-0.2-1.8l3.9-1.3l-0.3-1l0.8-0.8l-0.9-1.2l0.1-2.5l2.3-0.8l2.1-2.7l1.4,0.3l0.9-0.2l1.8-1.5l0.4,0.4l2.3-2.8l3.7-4.8l1,0.3
		l-0.1-3.3l1.9,2l2.3-0.2l1.3-0.6l0.8-1.8l1.8,0.4l1.2-0.5l0.8-2.2l-0.2-1l1-0.9l-1.8-1.6l-0.7-1.7l0.6-6.4L267,271l0.6-1.4
		l-0.3-1.8l-1.2-0.2l-0.2-0.7l-0.2-0.6l0.8,0.1l1.1-1.2l0.8-3.2l-1.4-0.1l-0.8-1.5l0.8-1.1l0.6,0.5l-0.2-0.6l1.8-2.4l-0.5-1.9
		l0.9-0.9l0.2-1.8l0.5-0.6l0.8,0.6l1.9-0.6l0.3-0.4l-0.6-0.8l1.1-1.9l-0.2-1.4l-1.9-1.1l-0.4-1.2l-4-4.8l-0.8,0.1l-0.2-0.9l-0.2-0.6
		l0,0l0.1-0.8l-0.8-0.5l0.2-2.3l-1.1-1.2l0.2-1.2l-2,0.6l-0.7,0.9l-1.7-0.2l-1-1.6l-0.6,0.8l-0.4-0.4l0.2-1.2l-1.1-0.8l-0.7-2.6
		l1.8-1.4l1-2l-0.4-2.9l0.8-0.8l-0.2-1.2l1.1-0.8l3.3-2.1l1-0.5v-2.2l-2.2-2.2l-0.6,0.2l0.5-1.1l-1.3-1.4l-1.4-3.6l-2.5-0.4
		l-0.6-1.1l-0.7,0.2l0.2-1.2l-0.3-0.7l-0.8-1.9l-1.9,0.9l-0.4-1.1l0.7-0.8l-0.6-0.3l-4.2,0.8l-1.6-2.2l-1.3,0.5l-0.8-0.6v-1.8
		l0.8,0.2l-0.2-0.8l-0.8-0.2l-0.3-2.3l-0.8-0.9l-3.3,1.2l-2.1-0.3l-0.7-0.6l0.4-1.7v-1.5l-2.9-2.2l-0.9,0.1v-0.8l-2.6-2.8l0.3-2.8
		l1.7-0.5l4.8-7.5l1.6,0.4l2-0.2l0.5-1.5l1.5-0.1l0.1-0.9l0.7-0.2l1.5,1.3l0.8-0.4l0.5-1.8l0.2-1.4l-0.7-1.1l0.6-0.8l-0.4-2.7
		l0.9-1.4l-3.9-3.6l1.7-0.3l1.8-1.8l1.2-0.1l0.3-1.6l-0.8-0.7l-0.2-2.4l1-2.2l1.4-0.2l0.2-0.7l1.2-0.5l3.8,0.3l0.8-1.3l0.8,0.6
		l0.3-1.7l-0.8-6.6l-1.6-0.1l-0.8-2l-6-4.9l-1.3-3.9l2.4-2l-0.3-1.5l-2.2-0.8l-1.5-1.7l-0.2-1.3l1.9-3.2L247,118l0.6-3.5l0.9-1.1
		l-0.2-1.9l-0.7-0.4l-0.2-1.2l-1.3-0.2l-2.6-2.8l-1.4-2.7l-0.7,1.5l-2.4,0.9l-2.2,2.6l-2.5,0.4l-2.2-1.9l-0.9-2.5l0.6-0.8l-2-3.3
		l1.8-1.3l0.7-2.5l1.3-1.1l-1.4-1.3v-1.9l-1.7-0.6l-0.3-0.8l1.8-1.8v-3.2l2.9-1.8l2.8-0.8l-1.3-2.5l0.8-0.6l-0.5-0.8l0.9-0.9l-1-0.8
		l-1.9,0.8l-1.5,0.2l-0.7-1.7l-0.8,0.1l-0.8-1.1l-0.3-2.2l-3-0.8l-1.9-2.7l-0.3-1.2l0.5-1L224.8,67.8z M187.5,180.8l-1.5,1l0.4,3.8
		l3.6,6.6l2.4,0.1l0.1-0.9l-0.1,0.5l-0.3-0.5l-1.7,0.3l-0.3-1.5l-0.8-0.2l0.2-1.4l-1.8-1.8l-0.1-3.2l-0.9-2L187.5,180.8z
		 M194.5,271.5l0.8,2.8l0.9-0.8L194.5,271.5z"/>
</a>
<a href="E12000001">
	<path id="north-east" class="cls-1" d="M265.8,0l-3.2,2v3.3l-1.3,0.2L260.5,8h-1.7l-0.3,1.7l-1.5,0.3l0.5,1.4l-3.1,3.2v1.3l-1.9,1.3
		l0.9,1.2l-4.3-0.7l-1.3,0.5l-0.7,1.2l0.8,0.7l0.9-0.3l-0.4,0.9l1.7,1.8v2.6l3,2.7l1,3.6l-0.3,1.5l1.6,2.2l0.1,1.6l2.8,0.7l-2.2,0.8
		l-0.3,1.8l-2.3,1.8l-1.8-0.5l-3.3,2.8l-1.2-0.3l-0.8,1.1l0.9,2l-1,0.9l0.6,0.6l-2.6,2l-1.3,0.1l-1-1.2h-1.8l-2.8,0.8l-2,3.1
		l-2.4,0.6l-0.9,2.3l-2.2,1.4l-1.2,2.3l-1.2,0.2l2.2,1.4l-1.2,0.2l-0.1,2.3l-2.2,0.2l-1,2.1l-0.4,1.5l0.9,1.4l-0.5,1l0.3,1.2
		l1.8,2.7l3,0.7l0.3,2.2l0.8,1.1l0.8-0.1l0.7,1.7l1.6-0.2l1.9-0.9l1,0.8l-1,0.9l0.6,0.8l-0.8,0.6l1.3,2.5l-2.8,0.8l-2.9,1.8
		l-0.1,3.2l-1.7,1.8l0.3,0.8l1.7,0.6v1.9l1.4,1.2l-1.3,1.1l-0.7,2.5l-1.8,1.4l2,3.3l-0.6,0.8l0.9,2.5l2.2,1.8l2.4-0.3l2.2-2.6
		l2.4-0.9l0.7-1.4l1.3,2.6l2.6,2.8l1.3,0.2l0.3,1.1l0.7,0.4l0.2,2l-0.9,1l-0.7,3.5l0.4,0.6l-1.9,3.2l0.2,1.3l1.6,1.7l2.2,0.8
		l0.3,1.5l-2.4,2.1l1.2,3.8l6.1,4.9l0.8,2.1h1.6l0.8,6.7l-0.3,1.7l3-0.6l4.8-2.3l-0.1,1l3.1,0.9l1.7,1.7l1.8-0.2l5.3-3.1l0.1-2.4
		l1.2-0.5l3,2.6l1.1-2.4l-0.2-2.8l2.9,0.4l0.8-1.6l1.6,0.7l0.9,0.3l1.6-0.2l0.2,1.1l1.3-0.1l0.1,1.2l1.3-0.6l0.7,0.3l-0.1,0.7
		l1.3-0.2v0.7l-0.7,0.3l0.8-0.1l-0.2,0.9l1.8,1.3l0.7,1.5h1.6l-0.7-0.5l0.2-1.1l0.8,0.2l0.2,0.9l1.2-1.2l-0.5,1.2l1.5,0.2l0.5,1.4
		l-0.3,0.2v0.4l0.8,0.5l-0.1-1.2l0.5-0.4l-0.6-1.1l0.3-1.8l-1.1-0.9l1.1-0.3l1.4,1.3l0.6,0.7l-0.3,0.6l1.2,0.2l0.3-1.8l0.8,0.8
		l0.8-0.9l0.7,0.8l-0.2,1.5l0.6,0.7l1.2-0.7l0.1,0.9l2-1.5l0.8,0.2l1.2-1.6l1.5,0.3v-1.5h0.9l0.5-1l0.2-0.2l5.3,1.1l1.8,0.3l1.5-1
		l3.7,1.4l0.8-0.9l1.3-0.1l2.3,0.6l1,1l3.7-1.1l3.2,0.8l-0.7-1.4l0.2-3l1.3-2l1.7-0.3l0.8-1.1l-1.3,0.3l-2.8-1.4h-2.7l-2-1.7
		l-2.2,0.2l-1.5-0.5l-1.2-0.4l-3.3-2.5l-4.2-1.2l-1.1-1.2l0.1,1.1l-1.2,0.2l0.4,1.4l-0.7,1.1l-2.3,2.5l2.3-3.2l-0.2-1.3l-0.7,0.2
		l-1.8-0.2l0.8-1.1l1.6,0.1l-0.6-0.1l0.2-1.2l0.7-0.4l-1.7-1.3l-0.9-2.2l0.7-1.5l-0.6-0.5l1.5,0.8l-0.2-0.8l-4.1-2.5l-3.8-5.2
		l-1.3-7.4l-1.7-2.5l-0.5-1.8l-0.4-2.2l0.6-0.8l0.1-0.1l-0.2-1.4l-1.1,0.8L308,97l0.7,0.2l-0.9-0.5l0.2-2l-0.8,0.8l-1.8-0.2l1.8,0.1
		l1.4-2.2l-0.5-1.5l-1.2-0.9l-2-2.2l0.7-1.2l-1.1,0.9l-0.3-0.6l-1.6,2.7l0,0l-5.1,0.1l1.8-0.5l3-0.2l0.6-1.6l0.9-1l1.7-0.2l-1.8-1.8
		l-2-4.8l-0.6-1.2l-1.6-2.5l0.3-1.2l-1.8-2.7l2.2,3l-2.6-4.8l-0.8-0.2l1-0.2l0.6-2.1l1-0.4l-1.2-2.3l-0.5-2.2l-1.7-1.9l-1.3-3.3
		l1.5-5l-1.2-1.4l-2.2-1.1l2,0.5l-1.1-0.6l-1.2-4.2l-0.4,0.5l-0.6-1.1l0.2-0.5l0.6,0.9l1.8-2.3l0.3-2.7l-1.1-1l0.1-5.7l-1.4-0.7
		l0.2-2.5l-1.7-2.1l0.3-1l0.8-0.2l-1.7-2.4l0.4-0.5l-5.2-4.2l-1.2-0.2l-1.9,1.6l-0.9-1.4l1.3-1l-1.2-2.1l-1.8,1.2l-1.7-1l-1.8-2.5
		l-0.2-1.8l-0.8-0.2l0.1-1.2l-4.7-4.2l-2-3l0.6-0.4L265.8,0L265.8,0z M281.5,13.7l-4.6,0.1l0.8,0.8l1.6-0.4l0.8,1.6h1.5L281.5,13.7
		L281.5,13.7z M248.5,118.7l-0.9,0.4l0,0L248.5,118.7L248.5,118.7z"/>
</a>
<a href="E12000003">
	<path id="yorkshire-and-humber" class="cls-1" d="M344.9,136.1l-0.7,1.1l-1.7,0.3l-1.3,2l-0.2,3l0.6,1.4l-3.2-0.8l-3.7,1.1l-0.9-1
		l-2.3-0.6l-1.3,0.1l-0.8,0.9l-3.7-1.4l-1.5,1l-1.8-0.3l-5.3-1.1l-0.3,0.2l-0.4,0.9l-0.9,0.1l-0.1,1.5l-1.5-0.3l-1.2,1.7l-0.8-0.2
		l-1.9,1.5l-0.1-0.9l-1.2,0.7l-0.5-0.7l0.1-1.5l-0.7-0.8l-0.9,0.9l-0.8-0.8l-0.3,1.8l-1.3-0.2l0.3-0.6l-0.7-0.7l-1.3-1.3l-1,0.3
		l1,0.9l-0.2,1.8l0.6,1.1l-0.6,0.4l0.1,1.2l-0.7-0.4l-0.1-0.4l0.3-0.2l-0.5-1.4l-1.5-0.2l0.4-1.2l-1.2,1.2l-0.2-0.9l-0.8-0.2l-0.2,1
		l0.7,0.6l-1.7-0.1l-0.6-1.5l-1.8-1.3l0.2-0.9l-0.8,0.1l0.6-0.2l0.1-0.7l-1.4,0.2l0.2-0.7l-0.8-0.3l-1.3,0.6v-1.2l-1.3,0.1l-0.2-1.1
		l-1.6,0.1l-0.9-0.2l-1.6-0.7l-0.7,1.6l-3-0.4l0.2,2.8l-1.1,2.5l-2.9-2.6L277,143l-0.1,2.4l-5.3,3.1l-1.8,0.2l-1.7-1.7l-3.1-0.9
		l0.1-0.9l-4.8,2.3l-3,0.6l-0.8-0.6l-0.8,1.4l-3.8-0.3l-1.2,0.5l-0.2,0.7l-1.4,0.2l-1,2.2l0.2,2.4l0.8,0.7l-0.3,1.6l-1.2,0.1
		l-1.8,1.8l-1.7,0.3l3.9,3.6l-0.9,1.4l0.4,2.7l-0.6,0.8l0.7,1.1l-0.2,1.4l-0.4,1.8l-0.8,0.4l-1.5-1.3l-0.7,0.2l-0.1,0.8l-1.5,0.1
		l-0.5,1.5l-2,0.3l-1.6-0.5l-4.8,7.5l-1.7,0.5l-0.3,2.8l2.6,2.8v0.8l0.9-0.1l2.9,2.2v1.5l-0.4,1.7l0.7,0.6l2.1,0.3l3.3-1.2l0.8,0.9
		l0.3,2.3l0.8,0.2l0.2,0.8l-0.8-0.1v1.7l0.8,0.6l1.4-0.5l1.5,2.2l4.2-0.8l0.6,0.3l-0.7,0.8l0.4,1.1l1.9-0.9l0.8,1.9l0.3,0.7
		l-0.2,1.2l0.7-0.2l0.6,1.1l2.5,0.4l1.4,3.6l1.3,1.4l-0.5,1.1l0.6-0.2l2.2,2.2v2.2l-1,0.5l-3.3,2.1l-1.1,0.8l0.2,1.2l-0.8,0.8
		l0.4,2.8l-1,2l-1.8,1.4l0.7,2.6l1.1,0.8l-0.2,1.1l0.4,0.4l0.6-0.8l1,1.6l1.7,0.2l0.7-0.9l2-0.6l-0.2,1.2l1.1,1.2l-0.2,2.3l0.8,0.5
		l-0.1,0.8l0.3,0.6l0.2,0.9l0.8-0.1l4,4.8l0.4,1.2l1.9,1.1l0.2,1.4l1.1,0.5l1.3-0.8l2.1,2.2l1.2-0.1l0.2,0.8l1.2,0.2l-0.6,0.5
		l0.9,0.4l-0.3,2.4l2.1,1.8l1.5,0.2v3.9l1,1.1l1.7,0.1v1.1l3.3,1.3l-0.6,2.8l4.8,2.2l-1.4,0.3l-1.3,2.5l0.3,0.5l1.2-0.7l0.5,0.4
		l0.2,0.8l0.9-1.1l0.3,1.1l1.2-0.5v1l1.6,0.2l2.3-1.4l1.3-0.2l0.9,0.2l0.8-0.5l-0.3-0.9l1.2-0.8l1.4,0.3l0.6-0.8l1.6,0.8l-0.1,1.8
		l1.8,0.3l0.4-0.5l1.2,0.4l0.9-1.4l0.2,0.3l0.6-0.9l0.8,0.1v0.1l0.7,0.7l-0.5,1.2l0.9,0.6l2.6,0.8l0.8-0.8l1.8,0.4l0.2-0.8l3.9-3.3
		l-0.1-0.6l-1.1,0.2l-0.3-1.4l1.5,0.2l-0.5-1.5l1-0.7l-0.2-1.6l1.2-0.8v-1.2l0.5,0.2l1.3-2.2l3.7-0.7l0.1,0.7l1-0.2l1.2-1.2l0.6-3.8
		l2.1-1.5l1.1-2l2.4,3l-1.2,1.1l0.2,0.5l2.8-0.1l0.1-0.6l4.9,1.2l0.8-1.1v-1.3l0.8-0.4l0.2-2.1l1.1-0.2l0.8-2.2l7.4,0.7l-0.5,3
		l0.3,2.9h4.2l6.1-2l-0.9-0.6l0.3-1.8l-0.5-0.9l5.4-1.5l-0.2-1.6l-0.9-0.2l-0.6-1.3l-4.6,1.1l0.7-1l1.6-0.4v-0.7l1-0.3l1.4-1.8
		l0.6,1.2l4.6,0.3h0.8l2.2-4l-0.5-2.1l1,0.1l2.9,2.1l-0.2,1l1.1-0.2l0.8,1.9l1.8-0.4l0.6,0.8l-2.1,3.5h0.7l0.4,2.2l-0.3,2.8l1.4,0.2
		l0.5,1.7l1.8,0.3l0.3,2.1l1.2,1.2l0.8,0.2l2.4-2l-1.8-2l1.2-0.9l-0.4-0.9l1.3-0.4l0.6-3.2l1.2-0.2l0.5,0.8l3.2-0.9l0.5-0.5
		l-1.3-1.8l-3.3-3.6l-0.6-0.6l-0.8-0.1l-0.4,0.8l-0.9-0.4l-1.2-1l-6.2-5.1l-6.1-8.2l-6,1.4l-0.4,0.6h-5l-1.2,0.9l-1.3,1.2l-1,0.3
		l-4-1.7l-1.7-2.3l-5.3,2.2l0.6,2.6l-0.9-1.4l-0.1-1.4l-1.8-0.7l2-0.1l1.4-1.9l3.1-0.8l-0.4-0.6l3.1,0.8l2,1.9l5.2-1h0.7l1,0.3
		l7.4-2.8l2.9-0.5l2.6,0.1l0.3-1.6l-0.1,2.7l0.5,0.4l0.7,2l7.6,7.4l3.9,1l5.6-2.4l3.1,0.9l2.8,1.8l1.3,1.7l0.1,0.7l0.1-0.6l-0.2-1.8
		l-2-4.5l-18.2-25.5l-2.3-6.2l-1.7-5.2l-0.1-5.4l0.8-2.2l0.8-0.2l1.1-2.1l4-0.8l1.8-1.3l-1.2-1.3l-7.1-2.9l-0.6-0.1l-3.3-1.9l-1.5-3
		l0.5-1.5l1.2,0.1l-2.8-1.2l-4.4-2.3l0.2-0.5l-2-2.2l0.7-1.5l-1.5-0.6l-0.7-4.1l-1.1-0.9l-2.1-5.3l-1.8-1.9l-2-0.9l-0.7-1.8l0.7-1.6
		l-4.4-4.5l-1.5-0.5l-3.7-0.7l-0.8-2l-2.2-1.6l-1.8,0.7l-2-3.2L344.9,136.1z M299.7,271.5l0.5,0.7l0,0L299.7,271.5L299.7,271.5z"/>
</a>
<a href="E12000004">
	<path id="east-midlands" class="cls-1" d="M377.9,238.9l0.5,2.1l-2.2,4h-0.8l-4.6-0.3l-0.6-1.2l-1.4,1.8l-1,0.3v0.7l-1.6,0.4
		l-0.7,0.9l4.6-1.1l0.6,1.3l0.9,0.2l0.2,1.6l-5.4,1.5l0.5,0.9l-0.3,1.8l1,0.6l-6.1,2h-4.2l-0.3-2.9l0.5-3.1l-7.4-0.6l-0.8,2.1
		l-1.1,0.2l-0.2,2.1l-0.8,0.4v1.3l-0.8,1.1l0,0l-4.9-1.2l-0.1,0.5l-2.8,0.2l-0.3-0.5l1.3-1.1l-2.4-3l-1.1,2l-2.2,1.5l-0.5,3.8
		l-1.2,1.2l-1,0.2l-0.1-0.7l-3.7,0.7l-1.3,2.2l-0.5-0.2v1.2l-1.2,0.8l0.2,1.6l-1,0.7l0.5,1.5l-1.5-0.2l0.3,1.4l1.1-0.2l0.1,0.6
		l-3.9,3.3l-0.2,0.8l-1.8-0.4l-0.8,0.8l-2.6-0.8l-0.9-0.6l0.5-1.2l-0.7-0.7l-0.8-0.2l-0.6,0.9l-0.2-0.3l-0.9,1.4l-1.2-0.4l-0.4,0.5
		l-1.8-0.4l0.1-1.8l-1.6-0.8l-0.6,0.8l-1.4-0.3l-1.2,0.8l0.3,0.9l-0.8,0.5l-0.9-0.2l-1.3,0.2l-2.3,1.4l-1.6-0.2v-1l-1.2,0.5
		l-0.3-1.1l-0.9,1.1l-0.2-0.8l-0.5-0.4l-1.2,0.7l-0.3-0.5l1.3-2.5l1.4-0.3l-4.8-2.2l0.6-2.8l-3.3-1.3v-1.1l-1.7-0.1l-1-1.1v-3.9
		l-1.5-0.2l-2.1-1.8l0.3-2.4l-0.9-0.4l0.6-0.5l-1.2-0.2l-0.2-0.8l-1.2,0.1l-2.1-2.2l-1.3,0.8l-1.1-0.5l-1.1,1.9l0.6,0.8l-0.3,0.4
		l-1.9,0.6l-0.8-0.6l-0.5,0.6l-0.2,1.8l-0.9,0.9l0.5,1.9l-1.8,2.4l0.2,0.6l-0.6-0.5l-0.8,1.2l0.8,1.5l1.4,0.1l-0.8,3.2l-1.1,1.2
		l-0.8-0.1l0.2,0.6l0.2,0.7l1.2,0.2l0.3,1.8l-0.6,1.4l0.8,1.5l-0.6,6.4l0.7,1.7l1.7,1.6l-1.1,0.9l0.2,1l1.7-1.3l0.3,1.3l3.5,1.7
		l1.9,0.3l3.8,4l-0.3,2.5l2.5,3.6v1l-0.7,0.5l0.5,2.8l0.7,0.4l-0.6,1l0.4,0.6l1.4,1.5l-0.3,3.4l-4.2,2.4l-0.2,3.5l-1.6,1.6v1.2
		l1.7,2.6l-0.2,1.1l1.4,0.7l0.6-0.6l0.9,0.7l0.7-0.4l2.1,1.7l1.3,0.9l1.4-0.8l0.1,0.6l0.8-0.3l4.2,1.1l2.8,2.5l-1.7,1.8l1.2,0.7
		l0.2,1l-1.7,1.3l0.2,0.8l-0.5-0.4l-0.5,0.6l-0.8-0.8l-0.8,0.8l-1.1-0.6l-2.1,3.6l0.3,0.9l-1,1.4l3.3,1l0.2,2.5l1.3-0.4l2.1,0.7
		l0.4-0.4l0.7,0.7l-0.2,0.8l2.5,2l0.7,1.6l-0.3,1.2l-1.6,0.8l0.3,1.6l0.8,0.7l-0.4,2l2.2,1.5l0.3,1.3l4.2,2l2.8,1.9l6.2,3.6l1.3,0.8
		l4.4,5.8l0.2,0.4l2.4,4.2l2.1,3.9l-0.2,0.5l-3.1,0.8l-2.8,1.7l-0.4,0.7l3.8,1.4l-1.6,2.7l0.7,0.4l0.6,2.2l-1.1,1.5l-1.5,0.7
		l-0.8,1.3l-1.2-0.3l0.6,1.8l1,0.7l0.4,1.8l-1.8,0.8l-2.2,0.2l-1.1,2.5l5.6,7.7l-1.6-0.1l-3.2,1.2l0.2,0.8l1.4,0.2l-1.1,3l2.4,4
		l-0.7,2.7l0.4,1.2l2.8-0.8l3.1,1l1.4-0.6l0.8-1.2l2-0.4l1.2-2.1l-1.4-0.6l0.9-2.5l4-2l2.4-0.2l-1.1-1.1l5,0.3l1.1-1.2l0.8,0.6
		l0.8,3.5l1.5,2.3l1.2-1.1l0.7,0.3l0.6-1.2l1.2-1.2l-0.7-1.1l1.6-0.3l0.6-0.9l-1.1-2.1l-1.5-0.9l-0.2-1.3l-1.1-0.2l0.4-1.3h0.1
		l3.5-0.8l-0.2-1.2l1.2,0.1l0.4-1.6l1.1,0.6l0.5-1.6l1.2-0.6l0.2,0.9l0.8-0.4l3-2.8l2.5-0.4l2-3.6l-1.2-4.5l2.9-1.2l1.6,0.6l1.5,2.1
		l1.7-0.4l0.6-1.4l-0.8-2.1l1.8-2.8l-0.4-0.3l3.7-0.7l-0.2-1.8l-1.2-0.2l0.4-0.9l-1.4-1.2l0.6-1.5l-0.5-0.6l3.8-0.8l1.6-1.9
		l-0.1-0.9l0.4-0.1l3.2-2.3l-0.7-0.4l1.2-2.5l0.8-0.8l-1.2-2.5l0.3-1.8l-4-2.1l0.8-1.3l-0.1-1l-1.2-1.2l0.8-0.5l-0.6-1.6l-0.7-0.4
		l-3.5,1l-1.3-1.4l1.7-3.4l-0.2-1.1l-1.4-1.3l0,0l1.2-0.9l1.5-0.1v-0.6l3.2,0.6l3.7-1.6l0.9-1.4l3.1,0.4l2,2l3.6-1.9l0.9,1.7
		l0.9-0.9l2.6,0.9l2.5-2.3l1,0.6l1.5-1l2.2,1l0.1,0.4l3.5-0.4l1.8-1.9l-0.4-3.6l1.2-1.4l1.7,0.3l2.9-1.8l2.5-0.1l1.1,0.5l5.5-4.3
		l-1.8-1.2l1.3-2.9l-3.3-0.6l-0.6,3.6l0.4-4.7l-2.8-5l-1.7-0.9l-1.8-0.8h-2.1l-2.2-1.2l-1.3,0.4l0.3-0.8l-1,0.7l1.2-1.8l-0.6-0.9
		l1,0.6l1.7-1.5h-2.4l2.5-0.2l0.9-2.6l-0.5-0.1l4.4-6.1l2.7-2.5l1.2-0.8l4.8-4.6l-0.8-0.1l2.1-0.8l-1-0.5l2.1,0.5l0.7-0.9l0.8-10.4
		l-0.6-1.8l-0.8-3.3l-6.7-14.4l-1-3.6l-2.1-1.2l1-0.4l-1.7-1.8l0.8,0.2l-1.1-0.8l0.4-0.7l-2.3-3.2l0.7,0.2l-0.3-0.6l-1.1-1.2
		l-0.2,1.3l-1.1-0.2l0.5-1.2l-1.8-0.9l0.6,1.2l-0.3,0.7l-0.8-0.6l-0.5-0.1l-1-1l0.6-1.2l-0.6-0.2l-0.1,0.6l-2.6-1.6l0.6,1.3l0.6-0.3
		l-0.1,1l-2.5-1.8l-0.5,0.5l-3.2,0.9l-0.5-0.8l-1.2,0.2l-0.6,3.2l-1.4,0.4l0.4,0.9l-1.2,0.9l1.8,2l-2.4,2l-0.8-0.2l-1.2-1.2
		l-0.3-2.1l-1.8-0.2l-0.5-1.7l-1.4-0.2l0.3-2.8l-0.4-2.2l-0.6-0.1l2-3.4l-0.6-0.9l-1.8,0.4l-0.8-1.9l-1.1,0.2l0.2-1l-2.9-2.1
		L377.9,238.9L377.9,238.9z"/>
</a>
<a href="E12000006">
	<path id="east-england" class="cls-1" d="M445.8,305.4l-0.8,0.1l-0.2,1l1.1-0.8l1.1,0.8l2.4-0.2L445.8,305.4L445.8,305.4z M445,305.5
		l-1.5,0.2h1.4L445,305.5L445,305.5z M464.4,305.4l-0.3,0.3l-0.2,0.8l1.7-0.8L464.4,305.4z M465.6,305.7l2.7,1l-1.1,0.4l-0.2,0.9
		l-2.2-0.2l0.1-0.7l-3.2,0.7l-1.1-0.7l-0.1,0.5l-2.7,0.2l1.9-0.4l-0.8-0.7h-0.2l0.1,0.1l-0.5,0.5l0,0l0.5-0.5l-1.6-0.9l-0.9,2.3
		l0.8-1.3l0.7,0.2l0,0l0.3,0.1l-0.3-0.1v0.8l-0.3,0.6l-1.3-0.2v-1.8l-2.1-0.2l1.1-0.3l-1.6,0.2l0.1,0.8l-2.2-0.7l-2,0.1l0.7,0.1
		l-0.2,0.7l-1.7,1V307l-1.5-0.2l-0.9-0.4l-1.3,0.8h0.9l-1.4,0.1l0.4-0.7l-3.6,0.4l0.4,0.2l-0.6,0.3l0.1-0.5l-1.8-0.2l0.9,0.9
		l-0.9,0.2l-0.3-0.8l-0.9,1l-0.7-1.3l-1.4,0.2l-3.4,3.7l-2.5,7.6l0.2,3.3l-0.8,0.5l-0.2-0.8l-0.8,0.7l0.6,0.3l-1.1,0.2l0.1,0.5h-1.1
		l-1.3,1.7l0.4,0.8l-0.5,0.1l-0.4,1.2l0.5,1.9l-0.5-1.4l-2.8-2.5h-2.7l-1.2,0.6l-1.3,2.9l1.8,1.2l-5.5,4.2l-1.1-0.5l0,0l-2.5,0.1
		l-2.9,1.8l-1.8-0.3l-1.2,1.4l0.4,3.6l-1.8,1.9l-3.5,0.4l-0.1-0.4l-2.1-1l-1.6,1l-1-0.6l-2.5,2.3l-2.6-0.9l-0.9,0.9l-0.9-1.7
		l-3.6,1.9l-2-2l-3.1-0.4l-0.9,1.4l-3.7,1.6l-3.2-0.6v0.6l-1.5,0.1l-1.2,0.9l1.4,1.3l0.2,1.1l-1.7,3.4l1.3,1.4l3.5-1l0.7,0.4
		l0.6,1.6l-0.8,0.5l1.2,1.2l0.1,1l-0.8,1.3l4,2.1l-0.3,1.8l1.2,2.5l-0.8,0.8l-1.2,2.5l0.7,0.4l-3.2,2.3l-0.4,0.2l0.1,0.8l-1.6,1.9
		l-3.8,0.8l0.5,0.6l-0.6,1.5l1.4,1.2l-0.4,0.9l1.2,0.2l0.1,1.8L367,381l0.4,0.3l-1.8,2.8l0.8,2.1l-0.6,1.4l-1.7,0.4l-1.5-2.1
		l-1.7-0.6l-2.8,1.2l1.2,4.5l-2,3.6l1.7,0.7l1.1,0.8L360,399l-0.7,0.2l0.5,1.6l1.8,0.4l1.1,2.5l-0.9,2.1l-1.6,1.2l-2.4,3.5l1.8,1.2
		l0.2,1.5l-0.7,0.6l0.5,0.8l-1.2,1.2l1.2,3l-0.5,0.3l-0.6,1.5l-0.7-0.1l0.2,1.3l-0.8,0.2l-1.2,3.6l0.7,1l1.3-0.2l1.4,1.6l2.2,0.1
		l0.8,1.1l1.7,0.5l3.2,4.2l-0.4,0.8l-0.6-0.2l-0.2-0.5l-1.7,2.7l-3.5-1.4l-1,0.8l-1.3-0.2l-1.9-2.7l0.5-0.9l-0.6-1l-1.4,0.1
		l-1.9,1.7l1.5,2.6l1-0.3l1.7,2.2l-0.3,0.8l1.2,2.6l4.1,2.2l1.8-0.5l1,1.8l0.6-0.5l0.6,0.6l0.2,1.2l-0.8,1.2l1.3,1.6l-0.1,1.8
		l1.5-0.2v0.3l0.9-0.1l0.4,0.8l-0.6,0.8l-0.5-0.2l-0.1,1l-0.9-0.2l0.4,1.2l-0.5,1.2l1.2,3.6l1.5,0.6v-3.4l2.9,2l1.1-0.9l2.5,0.7
		l1.8-0.5l0.7-0.3l0.3-0.3l3.1-1.9l0.8,0.3l0.6,0.2l2.2-1l0.4,0.3l0.4-1.5l2.6-0.7l0.6-1l0.8,0.7l0.6-0.5l0.7-0.5l0.6-1.7l3.1-0.2
		l0.8-0.3l6.4,1.1l0.1,3.8l2.6,0.9l-0.2,1l1.3,1.4l2.2,1.1l1.1-0.1l0.2-0.9l2.5-0.9l0.6-0.2l4-0.3h0.2l1.6-0.8l2,1.5l0.8,1l-0.7,0.8
		l1.1,0.2l1.5,3.8l1.5-0.2l1.6,2.7h-0.8l-3.8,1l-0.1,1.6h-0.7l-0.3-1.2l-0.2,1.1h-0.6l0.4,1.2l-1.1,0.2l0.2,0.8l-1.1,0.6l-0.2,0.5
		l4.9,3l1.1-1.2l1.7-0.2l1.3,2.2l1.2,0.1l5.1-1.3l0.7-4l-0.3-0.4l1-0.6l3.6,0.1l2.2-0.9l-1.3-0.3l-1.1-2.3l-0.1-0.5l-0.9-0.7l1,0.6
		l0.8,1.4l0.8,1.2l0.8-0.3l0.9,1.2l1.4,0.2l4.3-1.7l-1.2,0.2l0.8-0.6l-2.2-0.4l0.2-0.6l-1.1-0.2l-1.8-0.8l4.4,0.6l1.2-0.4l3.1,0.6
		l5.6,0.8l1.3,0.3l4.1-3.9l-2.2-0.5l-0.7-1.8l-0.9,0.7l0.7-1.5l-2,0.4l2.8-1.7l-0.9-1.2l1.1,1.1l3.1-0.2l-0.1-1.8l-5.6-0.8l-1.4-1.3
		l-1.8,0.8l-1.1-0.5l-0.4-0.8l2-0.3l1,0.1l2.3,2l0.5-0.5l3.9,0.8l3.1-0.2l2.2-1.6l-0.2-2.7l0.9-2.5l-0.8-2.1l0.7-3.1l-1.4-1.8
		l-2.3,0.4l-2.9,3.2l-2.2-0.5l-1.8,0.4l0.2,1.1l-2,0.7l-0.6,1.3l-1.3,0.4v-0.7l0.7,0.2l0.2-1l1.2-0.9l-3.9-0.4l-1.8-1.8l1.3,0.8
		l0.5-1.6l1.5,0.8l1.2-0.4l0.2-0.4l0.2-0.8l1,0.4l0.1-0.6l0.9,0.8l0.2-1l1.5,0.7l2.3-0.2l-0.1-0.8l0.7,0.4l1.8-1.6l-1.5-0.7h-1.2
		l-0.1-0.6l1.1,0.2l-1.4-0.4l1.5-0.4l0.2,0.7l2.3,0.2l-1.2-1.3l-0.7-1.4l1.8,1.8l0.2-0.8l0.4-2.4l0.5,0.5l1.7-0.8l-0.5-0.2l2.7-0.7
		l-1.8-0.9l1.4-0.1l-0.8-1.2l2.1,1.6l-0.5-3.1l1,0.8l-0.5,1l0.8,1.5l2.2,1.1l2.2-0.8l-0.2-0.8l0.8-0.3l-0.1,0.6l-0.8,0.9l-0.3,0.7
		l-2.1,0.1l1.4,1.2l0.2,1.7l-0.7-1.6l0.8,1.9l3.7-0.6l2.6-0.3l6.9-5l3.2-4.6l0.2-1.6l-1.6-0.2l0.1,1.2v-0.1h-0.1l0,0v-0.1l0.1,0.1
		l-0.1-0.2l-0.2-0.3l-0.2-0.1l-0.1,0.1l-0.2-0.1h-0.1l-0.2-0.1v0.1l-0.1,0.1l0,0v0.1v0.1l0.2,0.1v0.1h0.2l0.2,0.2v0.2l0.2,0.1
		l-0.1,0.1h-0.7l-0.2,0.8l-0.1-0.7l-0.8,0.1l-0.2,0.8l-0.4-1.9l-1,0.4l0.8-1.2l-1.1,1.1h-2l2.1-0.8l-0.8-0.7l0.9-0.6l1-0.1l-1.1-0.6
		l0.9-0.8l0.3,0.2v-0.1l0.1,0.1l1,0.5l0.3-2.4l1.8-1.9l1-0.2l-0.4-1.5l-0.8,1.2l-2.2-0.9l-1.3,1.1h-0.7l0.1-0.6l-2.1,0.6l-0.5-0.1
		l-0.8-0.7l-3.4,1l-3.9-0.5l-1-1.4l1.1,1.2l1.4-1.2l3,0.5l2.2-2l1.7,1.6l1.5-0.1l0.7,0.3l1.5-1l2.2,0.5l-0.6-3.4l-3.8-0.8l-2.8-1.8
		l-1.3-2.1l1.8,1.3l2.5,1.5l2.9,1v-0.7l1.6,1.1l0.2,2.6l2.6,1.9l0.1,2l1.6-2.8l2.8-2.5l0.2-1.2l-2.1-1.8l1.8,0.7l0.5,1.3l2.3-2.1
		l1.9-4.4l-0.8,0.1l3.2-3.1l0.4,0.1l0.6-0.7l2.2-0.7l-4,2.6l-1.6,2.2l1.6-1.9l6.2-3.8l2.1-10.8l0.2-9.3l2.1-4.4l0.6-0.2l3.2-9.7
		v-4.9l1.4-3.1l0.3-1l-1.8-5.5l-0.8-3.6l0.4-0.8l-0.3-0.6l0.4,0.4l-0.6-8.1l-2.7-7.4l-2-2.8l-6.5-6.2l-10.6-8.4l-5.8-3.7l-5-1.8
		l-9.1-0.9L465.6,305.7L465.6,305.7z M486.4,422.6L486.4,422.6l0,1.5l1-0.5L486.4,422.6L486.4,422.6z M488.6,424.2l0.6,0.9l0.4-0.3
		L488.6,424.2z M488.4,424.7l-2,0.1l-0.3,0.7l1.3,0.7L488.4,424.7z M488.5,424.7v0.1l-0.1,0.2v0.2v0.2h-0.2l-0.2-0.1v0.1h0.1
		l-0.1,0.1l0.5,0.1l0.1,0.1v-0.5v-0.2L488.5,424.7L488.5,424.7z M489,426.5v0.2h-0.2L489,426.5L489,426.5L489,426.5z M468.9,433.5
		l-1.7,0.8v-0.5l-2.9,3.1l0.4,0.6l3.2-0.4l2.6-1.3l1.1-1.3L468.9,433.5L468.9,433.5z M452.6,442.6l-0.8,1.2h1.4L452.6,442.6
		L452.6,442.6z M454.9,443.2l1.2,0.7l1.1-0.5L454.9,443.2z M469.2,454l-5.6,0.9l-0.5,2.2l-1.9,0.2l0.6,1.3l-1,0.7l-0.4,1.2l1,0.3
		l-0.2-0.6l1.6,1l4.4-3.9L469.2,454z M460.4,457.1l-1.2,1.1l0.9,2.2l1.1-2.2l-0.1-1L460.4,457.1L460.4,457.1z"/>
</a>
<a href="E12000008">
	<path id="south-east" class="cls-1" d="M357.4,394.6l-2.5,0.4l-3,2.8l-0.8,0.4l-0.2-0.9l-1.2,0.6l-0.5,1.6l-1.1-0.6l-0.4,1.6
		l-1.2-0.1l0.2,1.2l-3.5,0.8l-0.5,1.3l1.1,0.2l0.1,1.3l1.5,0.9l1.1,2.1l-0.6,0.9l-1.6,0.3l0.7,1.1l-1.2,1.2l-0.6,1.2l-0.7-0.3
		l-1.2,1.1l-1.5-2.3l-0.8-3.5l-0.8-0.6l-1.1,1.2l-5-0.2l1.1,1.1l-2.4,0.2l-4,2l-0.9,2.5l1.4,0.6l-1.2,2.1l-2,0.4l-0.8,1.2l-1.4,0.6
		l-3.1-1l-2.8,0.8l-0.4-1.2l0.7-2.7l-2.3-4.1l1-2.9l-1.4-0.2l-0.2-0.8l3.2-1.2l1.6,0.1l-5.6-7.8l-1.2,3.7l-1.2-0.1l-1.8,1.9l1.5,0.2
		l0.9,1.8l-1.9,0.8l-2.7-2.6l-1.9,0.5l0.5,1.7l-2.1-0.4l-1.6,3.2l0.3,1.4l-1.6,6.8l-0.4,0.6l-0.9-0.5l-1.1,0.5l0.6,1.2l-2.1,0.9
		l-1.3-0.4l0.6,0.7l-1.4,1.6l-3.7-3.5l0.2,2.6l0.5,0.7l1.6,0.2l1.2,1.9l-2,1.7l0.8,2.5l-1.8,0.3l-0.6,2.2l-1.4,1.2l0.8,1.7l-0.7,1.7
		l0.6,1.9l-0.3,1.4l-2.6,2.2l1.3,1.4l0.9,3.3l-0.6,1.8l0.7,1.4l1.9,1.5l0.7,1.3l-0.9,0.4l-1.7-0.9l-1,1.8l0.5,2l2.2,2l-0.9,1.4
		l0.4,0.7l-1.6,1.2v2.3l-0.1,0.1l1,1.5l1.5-0.8l0.5,0.5l3.1,5.8l1.2-0.8l0.1,3.2l1.7,2.9l2.4,2.3l-0.2,2.5l-2.6,0.2l-0.4,0.8
		l0.6,0.8l0.7-0.2l-0.2,1.6l2.9,2.6l1.2,0.2l-0.3,1.4l1.1,1l-0.9,2l-2-1l-0.4,2.4l0.9,2.2l-0.2,1l-1.4,0.6l0.2,2.2h0.7l-0.4,1.3
		l-0.6,0.3l-2.2-1.1l-2.1,0.3l-1.8,3.9l-3.9,0.3l-0.2,1.2l1.7,1.4l-0.2,1.3l1.1,2.1l0.2,0.4l-0.6,3.1l2.6,1.1l-0.8,2.8l0.6,1.6
		l-0.4,4l0.2,0.9l2.3,1l-0.4,0.7l0.5,1l-0.8-0.2l-0.4,0.3l0.6,0.5l-1.6,0.3l0.7,1.8l1.1,0.5l-1.1,2.2l0,0l-0.2,0.5l-0.8-0.5
		l-1.8,1.5l-1-0.5l-0.9-0.5l-2.1-2.4l-2.3-0.1l-3.2-1.5l-1,0.6l-1.4-2.6l-1.2,0.6l-1.4,2.2v-2.4l-0.8,0.8l-2.8,0.2l-1.5,1.7
		l-0.5-0.8l0.1,1.3l2.4,1.8l3.2,4.8l2.2-1.6l2.2,0.5l-0.4,2.6l-0.6,0.9l-1.2-0.2l-0.4,0.8l0.3,0.3l-0.7,2.2l0.2,0.8l1.4,0.3l1.5-1
		l0.4,2.4l0.8,0.7l-0.9,0.7v1.8l-0.6,0.6l0.7,1.3l-0.2,0.5l1.2,1.5l0.1,1.5l2.6-1.6l0.7,1.7l-0.3,1.8l4.3-0.4l-0.8,1.6l3.5,0.6
		l5.2,2.2l-0.8-0.7l1.7-0.5l1.7-1.6l-0.8-0.3l1.1-0.6l-0.6-2.1l1.1,1.1h1.2l7-2.3l0.5-0.3l-0.6-0.6l3.3-0.2l2.7-3.5l-0.2-0.6
		l0.1,0.6l-0.8-0.1l-0.1-0.8l0.5-0.1l-1.4-0.2l0.3-1.2l-0.5-0.8l-1.3,0.2l0.5-0.6l-1.7-0.6l-3.1-4.5l-4.2-1.6l0.5-0.5l-0.2-1.5
		l0.7,1.8l1.1,0.8l0.8-0.4l-0.3-0.5h0.1l0.2,0.4l2.7,1.9l0.1-0.5l0.3,1.2l0.4-2.6l1.2-0.6l-0.9,0.9l0.1,1.6l1.2,1l3.6,3.4l-0.2-2.9
		l1.1-0.4l-0.4,4.2l4.3,2.5l2.1,0.8l1.9,2.2l3.3,1.7l2-1.8l-2,0.5l1.7-1.3l-0.5-0.9l-0.9,0.2l0.9-0.5l-1.6-2.1l-0.8,0.2l0.3-1.3
		l-1.6-0.3l1.5-0.7l1.8,0.8l1,0.1l-0.3-0.9l1-0.2l-0.2,0.9l1.2,1l0.5-1.1l2.7,0.5l-2.2-0.3l-0.6,1.3l-1.1-0.2l0.6,1.2l0.2,0.7
		l-1.5,0.3l0.2,1.7l1.4,1.5l4.1-1.1l-0.1-1l-0.9,0.7l-0.1-2.1v-2.4l0.5-0.4l0.8,1l0.1-2.9l0.2,1l1.3-0.1l1.4,0.9l0.5-0.8l2.9-0.2
		l-0.1,1.4l1-0.3l0.5,0.6l-0.1-1.3l1.3,0.1l0.2,2.2l1.1,0.8l0.8-1.7l-0.4-1.4l0.8,0.1l-0.1,1.3h0.7l-1.2,1.6l1.8,0.9l1.6-1.4
		l0.3-1.8l0.4,0.3l-1.2,2.8l-1.3,0.6l-2.3-0.8l-1.8,2.8l-0.8,0.2l0.2-0.9l-0.3,0.9l5.2,2.8l4,3.3l2.1-3.8l-0.5,0.7l-0.8-1.2l-1,0.2
		l0.3-0.9l1.4-0.2l0.6,1.2l3.5-2.2l11-2.7l1.3-0.2l6-0.2l5.2-1l5.7-1.8l2.1,0.2l2.2-0.3l4,0.5l1.5,0.3l2.1,1.1l1-0.4l3.8,1.2
		l4.8,1.7l2,0.7v-0.7l4.5,2.5l1.8-0.1l4.7,2h3.1l5.2-6.8l2.6-2.4l8.6-2.8l7.2-2l2.6-1.4l1.4-0.1l4.2-4.7l3-1.7l-0.2-0.4l5.8,0.6
		l8.2,1l0.5-0.8l-1.4-5.4l1.8-6.1l5.4-4.7l8.2-1.7l-0.7-0.4l2.3-2.2l3.2-0.4l2.2-1.4l1.8,0.1l-0.8-1.1l4.3-2.4l1.3-2.6l-0.2-7.6
		l-0.2-0.4l-2.5-7.8l-1.4,1.2l-0.2-0.1l-0.1-0.7l1.2-0.7l0.1-1.2l0.8-0.5l2.5,0.5l0.6-0.9l0.2,0.6l1.1-3.6l0.3-2.1l-0.6-1.1
		l-0.5-0.2l-0.7-0.4l-7.4,1.8l-6.2,0.4l-9.7,1.7l-3.3,0.4l-1.4,1.6l-4.2,0.8l-3.2,0.4l-0.5,0.7l0.1-0.8l-2.2-1.2l-3.5-0.1l-3.3-0.4
		l-0.7,1l0.4-3.2l-2.7-1.8l-0.7-1.4l1-0.7l-1.1-0.1l0.9-0.4l-2.1,0.5l0.7,1.2l-0.7,0.2l0.5,1.2l1.1,0.7l-0.3,0.6l-1.2,0.5l0.5-1.4
		l-1.1,0.1l-1.1,2.1l-0.8-2l-1.3-0.3l-0.4,0.7l-1,0.1l-0.5,1.1l-1.2-0.8l-2.3-0.9l-1.7-1.6v0.1l-1.2,1.3l1-1.8l5.1-0.7l1-0.7
		l-0.5-0.6l1.1-1.9l1.4-0.4l0.7,0.6l0.2-0.5l0.6,1.6l2.4-0.3l0.7-0.8l-0.2-1.8l-1.5-1.3l-1.9,0.1l-0.8-0.5l-3,0.4l-2.1-1l-0.2,0.6
		l-0.6-0.5l-1.4,0.3l-0.5-0.6l-5.3,0.7l-0.7,1.7l0.7,0.3l-0.9,0.1l0.3,0.9l-5.2,1.5l-3.9-0.7l-0.7-1.6l-2.8,1.3l-3.9-2.8l-0.9,2.9
		l-2.1,1.2l-0.5,1.7l-0.6-0.2l-0.4,2.4l1,1.8l-1,0.1l0.4,2.4l-1,2.8H413v1.6l-2.2,1.5l0.2,2.5l-3,0.1l-0.7-1.6l-1.2,1.8l-1-4
		l-0.9-0.5l-0.2,0.4l-0.6-0.8l-1-0.1l-0.8,0.7l-0.1,1.1l-1.8,0.3l-0.8,2l-2.2,1.7l-0.9-1.5h-1.2l-0.1-2.2l-2.2-2.1l-0.7-0.2
		l-1.5,1.6l-0.7-0.8l0.8-0.8l-0.4-1.5l-1.6-1.1V483l-1.1,0.1l-1.8,1.9l-1.1,3l-1.2,1l-0.4-0.1l-0.1-2.2l1.5-3.4l-0.8-1.6l-0.7,0.2
		l-2.2-2.2L378,480l0.2-1.1l-0.4-0.4l-1.8-0.9l-1.4,0.2l-0.5-1l-0.7,0.2l-0.2-2l-3.5-1.3l0.4-1.3l0.9-1.5l0.5-1.4l-0.7-1.1l-0.3-2.3
		l1.2-2.2l-0.9-2.2l-0.8-2.4l-1.5-0.6l-1.5,1.4l1.3-1.4l-1.2-3.6l0.5-1.2l-0.4-1.2l1,0.2l0.1-1l0.4,0.2l0.7-0.8l-0.4-0.8l-0.9,0.1
		v-0.3l-1.5,0.2l0.1-1.8l-1.3-1.6l0.8-1.2l-0.2-1.2l-0.6-0.6l-0.6,0.5l-1-1.8l-1.8,0.5l-4.1-2.2l-1.2-2.6l0.3-0.8l-1.7-2.2l-1,0.3
		l-1.5-2.6l1.9-1.7l1.4-0.1l0.6,1l-0.5,0.9l1.9,2.7l1.3,0.2l1-0.7l3.5,1.4l1.7-2.7l0.2,0.5l0.6,0.2l0.4-0.8l-3.2-4.2l-1.7-0.5
		l-0.8-1.1l-2.2-0.1l-1.4-1.6l-1.3,0.2l-0.7-1l1.2-3.6l0.8-0.2l-0.2-1.3l0.7,0.1l0.6-1.5l0.5-0.3l-1.2-3l1.2-1.2l-0.5-0.8l0.7-0.6
		l-0.2-1.5l-1.8-1.2l2.4-3.5l1.7-1.2l0.9-2.1l-1.1-2.5l-1.8-0.4l-0.5-1.6l0.7-0.2l0.2-2.9l-1.1-0.8L357.4,394.6z M315.5,545.9
		l0.1,0.2l0.2-0.2l0.1-0.2l0.1-0.4l-0.2,0.6L315.5,545.9L315.5,545.9z M297.9,557.4l1,0.5l-0.4-0.3L297.9,557.4z M455.3,473.6
		l0.4,1.1l-0.9,1.5l0.9,0.8l-1,0.7l-0.8-0.5l0.7,1.4l2.3,1.3l0.2,2l2.5-0.2h0.1l2.4,0.7l1.2-0.2l2.7,1l3.6-2.2l-3.6-4.6l-5.3-0.8
		l-2.4-1.4L455.3,473.6z M450,476.4l-0.3,0.5l2,0.3l-0.4-0.8H450z M451.8,477.6l-1.7,0.6l0.5,1h1.6L451.8,477.6z M443.2,478.3
		l-0.2,0.6l1.5-0.1L443.2,478.3z M339.3,543.6l-1.2,0.8l-0.5,3.2l-2.1,0.2l0.2,1.1l5.8,0.9v-1l-1.5,0.7l0.5-0.7l-1-0.1l0.9-1.4
		l-1.2-0.2l-0.3-0.6l0.7-0.1l0.5,0.2l0.4-1.8L339.3,543.6z M341.3,544l-0.1,1.6l2.1,1.3l0.2-1.5l-0.3-1.2L341.3,544z M330.4,545.2
		l-0.3,0.8l0.5-0.2L330.4,545.2z M316.4,551.2l-1.4,0.2l-2.2,2.8l-3.9,1.5l1.7,0.3l-1.2,0.2l-0.8,1.2l0.2-1.2l-0.6-0.4h0.3l-0.7-0.2
		l-3.1,1.9l-2.2,0.4l-0.2,0.3l0.1-0.4h-1.2l-1.8,3.1l-2.6,1.7l7-0.5l2.6,2.5l4.1,1.8l6.6,5.7l7.6-2.6l1.8-5.8l1.8-1.3l2.5-0.4l1.9-2
		l-0.8-1.2l-1.8,0.1l0.3-0.7l0.3,0.2l-0.8-2.6l-3.5-1.2l-3.5-0.1l-0.6,0.4l0.4-0.8l-1.8-0.6l-0.6-0.9l-2-1.6l-1.1,0.2l0.7,3.8
		L316.4,551.2z M298.9,557.2l0.1,0.7l0.2,0.1L298.9,557.2z"/>
</a>
<a href="E12000007">
	<path id="london" class="cls-1" d="M396.6,448.7l-0.8,0.3l-3.1,0.2l1,0.7l0,0l-1-0.7l-0.6,1.7l-0.7,0.5l-0.6,0.5l-0.8-0.7l-0.6,1
		l-2.6,0.7l-0.4,1.5l-0.4-0.3l-2.2,1l-0.6-0.2l-0.8-0.3l-3.1,2l-0.3,0.3l-0.7,0.3l-1.8,0.5l-2.5-0.7l-1.1,0.9l-2.9-2v3.4l0.8,2.4
		l0.9,2.2l-1.2,2.2l0.3,2.3l0.7,1.1l-0.5,1.4l-0.9,1.5l-0.4,1.3l3.5,1.3l0.2,2l0.7-0.2l0.5,1l1.4-0.2l1.8,0.9l0.4,0.4L378,480
		l2.1-0.3l2.2,2.2l0.7-0.2l0.8,1.6l-1.5,3.4l0.1,2.2l0.4,0.1l1.2-1l1.1-3l1.8-1.9l1.1-0.1v1.4l1.6,1.1l0.4,1.5l-0.8,0.8l0.7,0.8
		l1.5-1.6l0.7,0.2l2.2,2.1l0.1,2.2h1.2l0.9,1.5l2.2-1.7l0.8-2l1.8-0.3l0.1-1.1l0.8-0.7l1,0.1l0.6,0.8l0.2-0.4l0.9,0.5l1,4l1.2-1.8
		l0.7,1.6l3-0.1l-0.2-2.5l2.2-1.5v-1.6h1.3l1-2.8l-0.4-2.4l1-0.1l-1-1.8l0.4-2.4l0.6,0.2l0.5-1.7l2.1-1.2l0.9-2.9l-0.5-1l0.2-0.6
		l1.1-0.5l-0.2-0.8l1.1-0.2l-0.4-1.2h0.6l0.2-1.1l0.3,1.2h0.7l0.1-1.6l3.8-1h0.8l-1.6-2.7l-1.5,0.2l-1.5-3.8l-1.1-0.2l0.7-0.8
		l-0.8-1l-2-1.5l-1.6,0.8h-0.2l-3.9,0.3l-0.7,0.2l-2.5,0.9l-0.2,0.9l-1.1,0.1l-2.2-1.2l-1.3-1.3l0.2-1l-2.6-0.9l-0.1-3.8
		L396.6,448.7L396.6,448.7z"/>
</a>
</svg>
